<svg width="32" height="32" viewBox="0 0 32 32" fill="none" xmlns="http://www.w3.org/2000/svg">
<path d="M16.6214 27.6208C18.1321 29.0004 20.4364 29.0911 22.0859 27.8808C23.2745 27.0085 24.4669 26.0856 25.5448 25.0077C26.6228 23.9297 27.5457 22.7374 28.418 21.5487C29.6283 19.8993 29.5374 17.595 28.1577 16.0843C24.2299 11.7831 20.1825 7.7961 15.7895 3.89688C15.2579 3.42501 14.6183 3.09763 13.9205 2.96195C11.3908 2.47011 5.08084 1.43423 3.52609 2.98898C1.97134 4.54373 3.00722 10.8537 3.49906 13.3834C3.63474 14.0812 3.96212 14.7208 4.43399 15.2524C8.33321 19.6454 12.3202 23.6927 16.6214 27.6208Z" fill="#D4E2F6" stroke="#266DD3" stroke-width="1.5"/>
<path d="M12.8355 12.298C13.8426 11.291 13.8426 9.65823 12.8355 8.65117C11.8285 7.64411 10.1957 7.64411 9.18867 8.65117C8.18162 9.65823 8.18162 11.291 9.18867 12.298C10.1957 13.3051 11.8285 13.3051 12.8355 12.298Z" fill="white" stroke="#266DD3" stroke-width="1.5"/>
</svg>
