<svg width="24" height="24" viewBox="0 0 24 24" fill="none" xmlns="http://www.w3.org/2000/svg">
<path d="M17.3996 3.59961C18.9902 3.59961 20.2917 4.83745 20.3932 6.40236L20.3996 6.59961V17.3996C20.3996 18.9902 19.1618 20.2917 17.5969 20.3932L17.3996 20.3996H6.59961C5.00903 20.3996 3.70756 19.1618 3.60599 17.5969L3.59961 17.3996V6.59961C3.59961 5.00903 4.83745 3.70756 6.40236 3.60599L6.59961 3.59961H17.3996ZM19.1996 8.39961H4.79961V17.3996C4.79961 18.3352 5.51347 19.1041 6.42626 19.1914L6.59961 19.1996H17.3996C18.3352 19.1996 19.1041 18.4857 19.1914 17.573L19.1996 17.3996V8.39961ZM8.39961 14.3996C9.06235 14.3996 9.59961 14.9368 9.59961 15.5996C9.59961 16.2624 9.06235 16.7996 8.39961 16.7996C7.73687 16.7996 7.19961 16.2624 7.19961 15.5996C7.19961 14.9368 7.73687 14.3996 8.39961 14.3996ZM11.9996 14.3996C12.6624 14.3996 13.1996 14.9368 13.1996 15.5996C13.1996 16.2624 12.6624 16.7996 11.9996 16.7996C11.3369 16.7996 10.7996 16.2624 10.7996 15.5996C10.7996 14.9368 11.3369 14.3996 11.9996 14.3996ZM8.39961 10.7996C9.06235 10.7996 9.59961 11.3369 9.59961 11.9996C9.59961 12.6624 9.06235 13.1996 8.39961 13.1996C7.73687 13.1996 7.19961 12.6624 7.19961 11.9996C7.19961 11.3369 7.73687 10.7996 8.39961 10.7996ZM11.9996 10.7996C12.6624 10.7996 13.1996 11.3369 13.1996 11.9996C13.1996 12.6624 12.6624 13.1996 11.9996 13.1996C11.3369 13.1996 10.7996 12.6624 10.7996 11.9996C10.7996 11.3369 11.3369 10.7996 11.9996 10.7996ZM15.5996 10.7996C16.2624 10.7996 16.7996 11.3369 16.7996 11.9996C16.7996 12.6624 16.2624 13.1996 15.5996 13.1996C14.9368 13.1996 14.3996 12.6624 14.3996 11.9996C14.3996 11.3369 14.9368 10.7996 15.5996 10.7996ZM17.3996 4.79961H6.59961C5.66397 4.79961 4.89507 5.51347 4.80785 6.42626L4.79961 6.59961V7.19961H19.1996V6.59961C19.1996 5.66397 18.4857 4.89507 17.573 4.80785L17.3996 4.79961Z" fill="#807F7F"/>
</svg>
