<svg width="25" height="24" viewBox="0 0 25 24" fill="none" xmlns="http://www.w3.org/2000/svg">
<g clip-path="url(#clip0_1606_24185)">
<path d="M21.2881 6.14653C21.1815 6.01703 20.8187 6.06852 20.6419 6.11392C20.4964 6.1669 20.3649 6.25277 20.258 6.36484C20.2315 6.38838 20.2052 6.4118 20.179 6.43408C16.3681 9.66297 12.6716 12.8494 9.33922 16.331C9.27235 16.4009 9.20186 16.4666 9.10426 16.5581C9.0535 16.6055 8.99573 16.6593 8.92773 16.7238C8.51017 16.2653 7.55545 15.1833 6.78583 14.3113C6.38169 13.8535 6.02912 13.454 5.8334 13.2344C5.72511 13.1081 5.62364 12.9762 5.52943 12.8391C5.46556 12.7497 5.39942 12.657 5.33018 12.5692C5.20338 12.4081 4.9671 12.1089 4.63311 12.3392C4.35008 12.5353 4.4577 12.8138 4.58214 13.0358C4.59669 13.0614 4.61092 13.0874 4.62506 13.1134C4.67554 13.2123 4.73421 13.3068 4.80047 13.3959C5.39241 14.1441 7.26211 16.441 7.88026 17.1213C8.37737 17.6681 8.69785 17.8864 9.02295 17.8985H9.04969C9.42114 17.8985 9.8002 17.611 10.2878 17.1494C12.8542 14.7182 15.172 12.5476 17.3738 10.5143C18.0765 9.86519 18.8116 9.22745 19.5226 8.61055C19.962 8.2294 20.4161 7.83524 20.8583 7.44234C21.0736 7.25126 21.2739 7.06058 21.3608 6.83266C21.4344 6.63991 21.419 6.30532 21.2881 6.14653Z" fill="black"/>
<path d="M19.3223 23.892H18.295C18.0493 23.8331 17.7999 23.792 17.5484 23.7688C15.3238 23.714 13.099 23.6526 10.8741 23.6314C9.19846 23.6154 7.51943 23.5969 5.8472 23.6829C2.73533 23.8435 0.881614 21.3744 1.10654 19.2168C1.17 18.6087 1.11377 17.9875 1.10541 17.3723C1.05496 13.6586 0.993456 9.94495 0.957859 6.23093C0.950018 5.41158 0.949398 4.57707 1.08848 3.77435C1.41752 1.87584 3.12989 0.527614 5.2433 0.469112C8.57959 0.376251 11.917 0.325479 15.2536 0.243761C16.6903 0.208577 18.1277 0.166488 19.5622 0.0821914C21.8442 -0.0519411 24.128 1.17135 24.4575 3.87618C24.6884 5.77085 24.8208 7.68523 24.8611 9.59373C24.929 12.8099 24.8993 16.0285 24.8903 19.2459C24.8848 21.1815 23.2579 23.1691 21.3443 23.5847C20.6794 23.7294 19.9968 23.7921 19.3223 23.892ZM12.3854 22.5405C13.223 22.5787 14.06 22.6304 14.898 22.6526C16.7571 22.7016 18.6134 22.9684 20.4765 22.643C22.328 22.3195 23.7604 20.7891 23.7537 19.1047C23.7431 16.4522 23.7425 13.7997 23.752 11.1472C23.7583 8.89026 23.7772 6.64178 23.3392 4.40312C22.9343 2.33304 21.6785 1.33808 19.5636 1.32507C16.3808 1.30557 13.1975 1.35159 10.0148 1.42114C8.47744 1.45477 6.93894 1.57003 5.40724 1.71468C4.28487 1.82075 3.25721 2.19013 2.68775 3.28517C2.27088 4.11043 2.06131 5.0248 2.07715 5.94924C2.07931 10.1932 2.12513 14.4374 2.09469 18.6816C2.07736 21.0902 3.46263 22.5568 5.86464 22.5425C8.03831 22.5294 10.2119 22.5396 12.3854 22.5405Z" fill="black"/>
</g>
<defs>
<clipPath id="clip0_1606_24185">
<rect width="24.1455" height="24" fill="white" transform="translate(0.854492)"/>
</clipPath>
</defs>
</svg>
