<svg width="20" height="20" viewBox="0 0 20 20" fill="none" xmlns="http://www.w3.org/2000/svg">
<g clip-path="url(#clip0_1978_9782)">
<path d="M9.1665 3.33398H3.33317C2.89114 3.33398 2.46722 3.50958 2.15466 3.82214C1.8421 4.1347 1.6665 4.55862 1.6665 5.00065V16.6673C1.6665 17.1093 1.8421 17.5333 2.15466 17.8458C2.46722 18.1584 2.89114 18.334 3.33317 18.334H14.9998C15.4419 18.334 15.8658 18.1584 16.1783 17.8458C16.4909 17.5333 16.6665 17.1093 16.6665 16.6673V10.834" stroke="#100B1E" stroke-width="2" stroke-linecap="round" stroke-linejoin="round"/>
<path d="M15.4165 2.08417C15.748 1.75265 16.1977 1.56641 16.6665 1.56641C17.1353 1.56641 17.585 1.75265 17.9165 2.08417C18.248 2.41569 18.4343 2.86533 18.4343 3.33417C18.4343 3.80301 18.248 4.25265 17.9165 4.58417L9.99984 12.5008L6.6665 13.3342L7.49984 10.0008L15.4165 2.08417Z" stroke="#100B1E" stroke-width="2" stroke-linecap="round" stroke-linejoin="round"/>
</g>
<defs>
<clipPath id="clip0_1978_9782">
<rect width="20" height="20" fill="white"/>
</clipPath>
</defs>
</svg>
