<svg width="27" height="25" viewBox="0 0 27 25" fill="none" xmlns="http://www.w3.org/2000/svg">
<path d="M13.5 7.07031C13.0032 7.07808 12.51 7.15701 12.0356 7.30469C12.255 7.69062 12.3719 8.12636 12.375 8.57031C12.375 8.91503 12.3071 9.25638 12.1752 9.57486C12.0432 9.89334 11.8499 10.1827 11.6061 10.4265C11.3624 10.6702 11.073 10.8636 10.7545 10.9955C10.436 11.1274 10.0947 11.1953 9.74997 11.1953C9.30603 11.1922 8.87028 11.0754 8.48435 10.8559C8.17986 11.9119 8.21535 13.037 8.58579 14.0717C8.95622 15.1064 9.64282 15.9983 10.5483 16.6211C11.4538 17.2439 12.5324 17.566 13.6311 17.5418C14.7299 17.5176 15.7931 17.1483 16.6704 16.4862C17.5476 15.8242 18.1942 14.9029 18.5187 13.8528C18.8432 12.8028 18.8291 11.6773 18.4784 10.6358C18.1277 9.59419 17.4582 8.68937 16.5647 8.04946C15.6712 7.40955 14.599 7.067 13.5 7.07031ZM26.8368 11.6359C24.2948 6.67609 19.2623 3.32031 13.5 3.32031C7.73763 3.32031 2.70372 6.67844 0.163099 11.6364C0.055869 11.8485 0 12.0829 0 12.3205C0 12.5582 0.055869 12.7926 0.163099 13.0047C2.70513 17.9645 7.73763 21.3203 13.5 21.3203C19.2623 21.3203 24.2962 17.9622 26.8368 13.0042C26.9441 12.7921 26.9999 12.5578 26.9999 12.3201C26.9999 12.0824 26.9441 11.8481 26.8368 11.6359ZM13.5 19.0703C8.87576 19.0703 4.63638 16.4922 2.34701 12.3203C4.63638 8.14844 8.87529 5.57031 13.5 5.57031C18.1247 5.57031 22.3636 8.14844 24.6529 12.3203C22.364 16.4922 18.1247 19.0703 13.5 19.0703Z" fill="#461257"/>
</svg>
