<svg width="24" height="25" viewBox="0 0 24 25" fill="none" xmlns="http://www.w3.org/2000/svg">
<g clip-path="url(#clip0_2358_45692)">
<path d="M19.74 7.65049L15.3 2.65049C15.2065 2.5469 15.0924 2.46402 14.9649 2.40719C14.8375 2.35035 14.6995 2.32082 14.56 2.32049H6.56C6.22775 2.31653 5.89797 2.37805 5.5895 2.50155C5.28103 2.62504 4.9999 2.8081 4.76218 3.04025C4.52446 3.2724 4.33479 3.5491 4.20402 3.85456C4.07324 4.16002 4.00392 4.48824 4 4.82049V19.8205C4.00392 20.1527 4.07324 20.481 4.20402 20.7864C4.33479 21.0919 4.52446 21.3686 4.76218 21.6007C4.9999 21.8329 5.28103 22.0159 5.5895 22.1394C5.89797 22.2629 6.22775 22.3245 6.56 22.3205H17.44C17.7723 22.3245 18.102 22.2629 18.4105 22.1394C18.719 22.0159 19.0001 21.8329 19.2378 21.6007C19.4755 21.3686 19.6652 21.0919 19.796 20.7864C19.9268 20.481 19.9961 20.1527 20 19.8205V8.32049C19.9994 8.07266 19.9067 7.83389 19.74 7.65049ZM14 4.32049L17.74 8.32049H14.74C14.6353 8.31417 14.5329 8.28705 14.4387 8.24072C14.3446 8.1944 14.2607 8.12978 14.1918 8.05066C14.1229 7.97153 14.0704 7.87948 14.0375 7.77987C14.0046 7.68026 13.9918 7.57509 14 7.47049V4.32049Z" fill="#231F20"/>
</g>
<defs>
<clipPath id="clip0_2358_45692">
<rect width="24" height="24" fill="white" transform="translate(0 0.320312)"/>
</clipPath>
</defs>
</svg>
