<svg width="24" height="24" viewBox="0 0 24 24" fill="none" xmlns="http://www.w3.org/2000/svg">
<path d="M19.0088 12H21.12" stroke="#100B1E" stroke-width="1.3"/>
<path d="M2.87988 12H14.5086" stroke="#100B1E" stroke-width="1.3"/>
<path d="M9.95215 5.98828H21.1196" stroke="#100B1E" stroke-width="1.3"/>
<path d="M2.87988 5.98828H5.45988" stroke="#100B1E" stroke-width="1.3"/>
<path d="M13.125 18.0117H21.12" stroke="#100B1E" stroke-width="1.3"/>
<path d="M2.87988 18.0117H8.62488" stroke="#100B1E" stroke-width="1.3"/>
<path d="M7.70605 8.12109C8.94869 8.12109 9.95605 7.11373 9.95605 5.87109C9.95605 4.62845 8.94869 3.62109 7.70605 3.62109C6.46341 3.62109 5.45605 4.62845 5.45605 5.87109C5.45605 7.11373 6.46341 8.12109 7.70605 8.12109Z" stroke="#100B1E" stroke-width="1.3"/>
<path d="M16.7588 14.25C18.0014 14.25 19.0088 13.2426 19.0088 12C19.0088 10.7574 18.0014 9.75 16.7588 9.75C15.5161 9.75 14.5088 10.7574 14.5088 12C14.5088 13.2426 15.5161 14.25 16.7588 14.25Z" stroke="#100B1E" stroke-width="1.3"/>
<path d="M10.875 20.2617C12.1176 20.2617 13.125 19.2544 13.125 18.0117C13.125 16.7691 12.1176 15.7617 10.875 15.7617C9.63236 15.7617 8.625 16.7691 8.625 18.0117C8.625 19.2544 9.63236 20.2617 10.875 20.2617Z" stroke="#100B1E" stroke-width="1.3"/>
</svg>
