<svg width="29" height="24" viewBox="0 0 29 24" fill="none" xmlns="http://www.w3.org/2000/svg">
<path d="M16.072 0C22.708 0 28.084 5.4 28.084 12C28.084 18.6 22.708 24 16.072 24C11.86 24 8.17602 21.816 6.02802 18.516L7.92402 17.016C9.61602 19.764 12.628 21.6 16.084 21.6C18.6301 21.6 21.0719 20.5886 22.8722 18.7882C24.6726 16.9879 25.684 14.5461 25.684 12C25.684 9.45392 24.6726 7.01212 22.8722 5.21178C21.0719 3.41143 18.6301 2.4 16.084 2.4C11.188 2.4 7.15602 6.072 6.56802 10.8H9.88002L5.39202 15.276L0.916016 10.8H4.14402C4.74402 4.74 9.85602 0 16.072 0ZM19.624 9.888C20.224 9.9 20.716 10.38 20.716 10.992V16.524C20.716 17.124 20.224 17.628 19.612 17.628H12.976C12.364 17.628 11.872 17.124 11.872 16.524V10.992C11.872 10.38 12.364 9.9 12.964 9.888V8.676C12.964 6.84 14.464 5.352 16.288 5.352C18.124 5.352 19.624 6.84 19.624 8.676V9.888ZM16.288 7.032C15.388 7.032 14.644 7.764 14.644 8.676V9.888H17.944V8.676C17.944 7.764 17.2 7.032 16.288 7.032Z" fill="#461257"/>
</svg>
