<svg width="40" height="32" viewBox="0 0 40 32" fill="none" xmlns="http://www.w3.org/2000/svg">
<rect width="40" height="35" rx="4" fill="#EAF1FB"/>
<g clip-path="url(#clip0_1606_24696)">
<path d="M17.3337 6.66602H12.0003C11.2639 6.66602 10.667 7.26297 10.667 7.99935V13.3327C10.667 14.0691 11.2639 14.666 12.0003 14.666H17.3337C18.07 14.666 18.667 14.0691 18.667 13.3327V7.99935C18.667 7.26297 18.07 6.66602 17.3337 6.66602Z" fill="#266DD3"/>
<path d="M27.9997 6.66602H22.6663C21.93 6.66602 21.333 7.26297 21.333 7.99935V13.3327C21.333 14.0691 21.93 14.666 22.6663 14.666H27.9997C28.7361 14.666 29.333 14.0691 29.333 13.3327V7.99935C29.333 7.26297 28.7361 6.66602 27.9997 6.66602Z" fill="#266DD3"/>
<path d="M17.3337 17.334H12.0003C11.2639 17.334 10.667 17.9309 10.667 18.6673V24.0007C10.667 24.737 11.2639 25.334 12.0003 25.334H17.3337C18.07 25.334 18.667 24.737 18.667 24.0007V18.6673C18.667 17.9309 18.07 17.334 17.3337 17.334Z" fill="#266DD3"/>
<path d="M27.9997 17.334H22.6663C21.93 17.334 21.333 17.9309 21.333 18.6673V24.0007C21.333 24.737 21.93 25.334 22.6663 25.334H27.9997C28.7361 25.334 29.333 24.737 29.333 24.0007V18.6673C29.333 17.9309 28.7361 17.334 27.9997 17.334Z" fill="#266DD3"/>
</g>
<defs>
<clipPath id="clip0_1606_24696">
<rect width="24" height="24" fill="white" transform="translate(8 4)"/>
</clipPath>
</defs>
</svg>
