<svg width="25" height="24" viewBox="0 0 25 24" fill="none" xmlns="http://www.w3.org/2000/svg">
<path d="M3.66675 4.7H21.6667C22.0115 4.7 22.3422 4.83696 22.586 5.08076L22.7274 4.93934L22.586 5.08076C22.8298 5.32456 22.9667 5.65522 22.9667 6C22.9667 6.34478 22.8298 6.67544 22.586 6.91924L22.7274 7.06066L22.586 6.91924C22.3422 7.16304 22.0115 7.3 21.6667 7.3H3.66675C3.32197 7.3 2.99131 7.16304 2.74751 6.91924C2.50371 6.67544 2.36675 6.34478 2.36675 6C2.36675 5.65522 2.50371 5.32456 2.74751 5.08076C2.99131 4.83696 3.32197 4.7 3.66675 4.7ZM3.66675 10.7H21.6667C22.0115 10.7 22.3422 10.837 22.586 11.0808C22.8298 11.3246 22.9667 11.6552 22.9667 12C22.9667 12.3448 22.8298 12.6754 22.586 12.9192C22.3422 13.163 22.0115 13.3 21.6667 13.3H3.66675C3.32197 13.3 2.99131 13.163 2.74751 12.9192C2.50371 12.6754 2.36675 12.3448 2.36675 12C2.36675 11.6552 2.50371 11.3246 2.74751 11.0808C2.99131 10.837 3.32197 10.7 3.66675 10.7ZM3.66675 16.7H21.6667C22.0115 16.7 22.3422 16.837 22.586 17.0808C22.8298 17.3246 22.9667 17.6552 22.9667 18C22.9667 18.3448 22.8298 18.6754 22.586 18.9192C22.3422 19.163 22.0115 19.3 21.6667 19.3H3.66675C3.32197 19.3 2.99131 19.163 2.74751 18.9192C2.50371 18.6754 2.36675 18.3448 2.36675 18C2.36675 17.6552 2.50371 17.3246 2.74751 17.0808C2.99131 16.837 3.32197 16.7 3.66675 16.7Z" fill="black" stroke="#DAF3F8" stroke-width="0.4"/>
</svg>
