<svg width="24" height="24" viewBox="0 0 24 24" fill="none" xmlns="http://www.w3.org/2000/svg">
<path fill-rule="evenodd" clip-rule="evenodd" d="M11.0626 4.96638C11.5786 3.99238 12.4206 3.98838 12.9386 4.96638L20.0626 18.4244C20.5786 19.3984 20.1076 20.1954 19.0056 20.1954H4.99556C3.89356 20.1954 3.42056 19.4024 3.93856 18.4244L11.0626 4.96638ZM11.2935 14.7065C11.481 14.894 11.7353 14.9994 12.0006 14.9994C12.2658 14.9994 12.5201 14.894 12.7077 14.7065C12.8952 14.5189 13.0006 14.2646 13.0006 13.9994V8.99937C13.0006 8.73416 12.8952 8.4798 12.7077 8.29227C12.5201 8.10473 12.2658 7.99937 12.0006 7.99937C11.7353 7.99937 11.481 8.10473 11.2935 8.29227C11.1059 8.4798 11.0006 8.73416 11.0006 8.99937V13.9994C11.0006 14.2646 11.1059 14.5189 11.2935 14.7065ZM11.2935 17.7065C11.481 17.894 11.7353 17.9994 12.0006 17.9994C12.2658 17.9994 12.5201 17.894 12.7077 17.7065C12.8952 17.5189 13.0006 17.2646 13.0006 16.9994C13.0006 16.7342 12.8952 16.4798 12.7077 16.2923C12.5201 16.1047 12.2658 15.9994 12.0006 15.9994C11.7353 15.9994 11.481 16.1047 11.2935 16.2923C11.1059 16.4798 11.0006 16.7342 11.0006 16.9994C11.0006 17.2646 11.1059 17.5189 11.2935 17.7065Z" fill="#100B1E"/>
</svg>
