<svg width="24" height="24" viewBox="0 0 24 24" fill="#000000" xmlns="http://www.w3.org/2000/svg">
<path d="M19 11.25C18.4477 11.25 18 10.8023 18 10.25V3.25C18 2.69772 17.5523 2.25 17 2.25H7C6.44771 2.25 6 2.69772 6 3.25V10.25C6 10.8023 5.55228 11.25 5 11.25H3.25C2.69772 11.25 2.25 11.6977 2.25 12.25V20.75C2.25 21.3023 2.69772 21.75 3.25 21.75H20.75C21.3023 21.75 21.75 21.3023 21.75 20.75V12.25C21.75 11.6977 21.3023 11.25 20.75 11.25H19ZM6.75 4C6.75 3.44772 7.19772 3 7.75 3H16.25C16.8023 3 17.25 3.44772 17.25 4V10.25C17.25 10.8023 16.8023 11.25 16.25 11.25H7.75C7.19772 11.25 6.75 10.8023 6.75 10.25V4ZM21 20C21 20.5523 20.5523 21 20 21H4C3.44772 21 3 20.5523 3 20V13C3 12.4477 3.44772 12 4 12H20C20.5523 12 21 12.4477 21 13V20Z" fill="#000000"/>
<path d="M9 6.75H15V7.5H9V6.75ZM9 8.25H15V9H9V8.25ZM14.25 16.5H9.75V15.75H9V17.25H15V15.75H14.25V16.5Z" fill="#000000"/>
</svg>
