<svg width="83" height="38" viewBox="0 0 83 38" fill="none" xmlns="http://www.w3.org/2000/svg">
<path fill-rule="evenodd" clip-rule="evenodd" d="M35.2402 18.1625C35.114 18.4928 35.0365 18.8544 35.0077 19.2474C34.8794 21.5472 34.9053 23.8204 35.0852 26.0668C35.0852 26.2218 35.0852 26.3768 35.0852 26.5318C35.0424 27.9854 35.1199 29.4319 35.3177 30.8714C35.3487 31.1534 35.4779 31.36 35.7052 31.4913C36.1126 31.3938 36.371 31.1356 36.4801 30.7164C36.683 29.0021 36.683 27.2972 36.4801 25.6018C36.3916 24.375 36.185 23.1868 35.8601 22.0372C35.8039 21.46 35.7007 20.8917 35.5502 20.3323C35.6621 19.8413 35.8429 19.3764 36.0926 18.9374C36.2023 18.8009 36.3316 18.6977 36.4801 18.6275C36.6747 18.6335 36.8297 18.556 36.945 18.395C38.2883 18.3434 39.6314 18.2916 40.9747 18.24C41.2664 18.2093 41.5246 18.1318 41.7496 18.0075C41.9562 18.0075 42.163 18.0075 42.3696 18.0075C42.3696 17.181 42.3696 16.3543 42.3696 15.5277C40.5854 15.9473 39.7847 15.2756 39.9673 13.5129C40.0889 13.2361 40.2697 13.0036 40.5097 12.8155C41.272 12.7853 42.021 12.7078 42.757 12.583C42.8621 11.8019 42.9912 11.0269 43.1445 10.2582C43.3884 10.0099 43.4918 9.69995 43.4545 9.32829C43.9489 6.65974 45.1888 4.41244 47.1741 2.58639C48.6727 1.54223 50.0417 1.6714 51.2813 2.97386C51.3532 3.06598 51.3791 3.16931 51.3588 3.28383C51.6261 4.34533 51.7293 5.43023 51.6687 6.53854C51.2948 8.8359 50.2615 10.799 48.569 12.428C48.4467 12.4719 48.3434 12.5494 48.259 12.6605C49.2909 12.738 50.3242 12.7637 51.3588 12.738C51.9552 12.766 52.2135 13.076 52.1337 13.6679C52.084 14.1009 51.929 14.4884 51.6687 14.8303C51.1768 15.0977 50.6602 15.3042 50.1189 15.4502C48.6733 15.5277 47.2267 15.5535 45.7793 15.5277C45.5998 17.0505 45.5739 18.6003 45.7018 20.1773C45.7449 20.3193 45.8224 20.4225 45.9342 20.4873C46.1303 21.4975 46.6985 22.2208 47.6391 22.6571C48.2298 22.8346 48.8497 22.8604 49.4989 22.7346C49.781 22.7036 49.9876 22.5743 50.1189 22.3471C50.6801 21.8383 51.2483 21.3217 51.8237 20.7973C51.9432 18.9054 52.2532 17.0455 52.7537 15.2178C53.0342 14.8078 53.1892 14.3429 53.2186 13.8229C53.3517 13.3654 53.6617 13.0813 54.1485 12.9705C55.8639 12.5934 56.5614 13.2392 56.2408 14.9078C56.1091 15.854 55.9284 16.7839 55.6984 17.6975C55.4476 18.1115 55.3442 18.5765 55.3884 19.0924C55.171 19.646 55.0677 20.2401 55.0784 20.8748C55.0791 21.2407 55.1307 21.5764 55.2334 21.8822C55.4327 22.5917 55.8977 22.8242 56.6283 22.5796C57.3206 22.0426 57.9663 21.4485 58.5656 20.7973C58.6114 19.5017 58.6888 18.2102 58.7981 16.9226C59.1121 15.609 59.3705 14.2657 59.573 12.893C60.1304 9.10728 61.396 5.59421 63.3702 2.35391C64.1109 1.40307 65.0151 0.653975 66.0825 0.10661C67.6402 -0.251098 68.7251 0.291354 69.3372 1.73397C69.6103 3.11079 69.7135 4.50566 69.6472 5.91859C68.9214 9.15626 67.5006 12.0494 65.385 14.5978C64.4145 15.8789 63.3296 17.0671 62.1303 18.1625C61.9688 19.6814 61.8913 21.2053 61.8978 22.7346C61.9603 25.0853 62.0119 27.4358 62.0528 29.7865C62.0087 30.3024 62.112 30.7674 62.3628 31.1813C62.6012 31.5763 62.8594 31.5763 63.1377 31.1813C63.2496 31.1166 63.3271 31.0133 63.3702 30.8714C63.4982 29.0362 63.4723 27.2281 63.2927 25.4469C63.267 24.2068 63.0604 23.0185 62.6728 21.8822C62.5756 21.1629 62.524 20.4397 62.5178 19.7124C62.7357 19.6391 62.8391 19.4841 62.8278 19.2474C62.9968 18.7936 63.3068 18.4579 63.7577 18.24C65.0999 18.1625 66.4431 18.1368 67.7873 18.1625C67.9939 18.1625 68.2007 18.1625 68.4073 18.1625C68.5099 17.5478 68.5615 16.9279 68.5623 16.3027C68.8062 16.0544 68.9096 15.7444 68.8722 15.3728C69.0202 13.4432 70.0535 12.6425 71.972 12.9705C72.1954 13.0289 72.3504 13.158 72.4369 13.3579C72.4053 13.8257 72.3537 14.2906 72.2819 14.7528C71.8566 15.9927 71.5983 17.2842 71.507 18.6275C71.277 19.1783 71.1736 19.7725 71.197 20.4098C71.1975 20.8267 71.2491 21.2142 71.352 21.5722C71.7041 21.7681 72.0657 21.7424 72.4369 21.4947C73.9369 19.2434 74.9702 16.7895 75.5366 14.1329C75.7545 14.0596 75.8579 13.9046 75.8466 13.6679C76.0284 13.3573 76.2868 13.1248 76.6215 12.9705C77.1381 12.8671 77.6548 12.8671 78.1714 12.9705C78.2489 13.048 78.3264 13.1255 78.4039 13.2029C78.4977 14.3509 78.4202 15.4876 78.1714 16.6126C77.9874 17.1467 77.8841 17.7151 77.8614 18.3175C77.8614 18.3691 77.8614 18.4209 77.8614 18.4725C77.5756 19.4661 77.4207 20.4994 77.3965 21.5722C77.1961 21.8611 77.1961 22.1711 77.3965 22.5021C78.8213 21.4026 80.3194 20.4211 81.8911 19.5574C82.2423 19.6242 82.4748 19.8308 82.5885 20.1773C82.8215 21.0797 82.589 21.8287 81.8911 22.4246C80.1135 23.5566 78.3571 24.719 76.6215 25.9118C76.4697 26.3126 76.418 26.726 76.4666 27.1517C76.2035 27.8939 75.9968 28.6689 75.8466 29.4765C75.4895 30.6 75.1279 31.7365 74.7617 32.8862C74.5178 33.1345 74.4144 33.4445 74.4517 33.8161C73.8389 35.2748 72.909 36.4888 71.662 37.4583C70.226 38.229 68.8312 38.1773 67.4773 37.3033C66.536 36.0645 66.3035 34.6954 66.7799 33.1962C67.5348 31.2512 68.6972 29.5723 70.2671 28.1591C71.4295 27.2033 72.5919 26.2477 73.7543 25.2919C73.7964 24.865 73.8739 24.4517 73.9868 24.052C74.2836 23.5199 74.3352 22.9516 74.1418 22.3471C73.8586 22.6551 73.7036 23.0168 73.6768 23.432C73.0031 25.0874 71.7632 25.8365 69.9571 25.6793C68.419 24.6344 67.7473 23.1621 67.9423 21.2622C66.9468 21.3073 65.9653 21.2557 64.9976 21.1072C64.9883 21.0231 64.9367 20.9715 64.8426 20.9523C64.6271 21.4135 64.6788 21.8268 64.9976 22.1921C65.5594 25.3852 65.5851 28.5883 65.0751 31.8013C64.7651 32.3179 64.4551 32.8346 64.1451 33.3512C61.8379 34.8778 60.2364 34.3094 59.3406 31.6463C59.1891 31.2991 59.1116 30.9376 59.1081 30.5614C59.023 29.651 58.868 28.7727 58.6431 27.9266C58.6431 27.6683 58.6431 27.4101 58.6431 27.1517C58.6941 26.2161 58.6425 25.2861 58.4881 24.362C58.3941 24.3812 58.3425 24.4328 58.3332 24.5169C57.1636 25.4811 55.8204 25.8686 54.3035 25.6793C53.4165 25.3353 52.745 24.741 52.2887 23.897C49.8932 25.9907 47.3102 26.2748 44.5394 24.7494C43.7888 23.9426 43.2204 23.0385 42.8345 22.0372C42.8271 21.6012 42.7237 21.188 42.5246 20.7973C42.3519 20.5995 42.1969 20.5995 42.0596 20.7973C40.7988 21.2667 39.5071 21.3701 38.1849 21.1072C38.062 21.6683 38.062 22.2366 38.1849 22.8121C38.2243 23.8826 38.3793 24.9159 38.6499 25.9118C38.6953 27.6745 38.6178 29.4309 38.4174 31.1813C38.0537 32.6088 37.2012 33.6162 35.8601 34.2036C35.1965 34.3531 34.5765 34.2498 34.0003 33.8936C33.5552 33.5004 33.1677 33.0613 32.8379 32.5762C32.3294 31.0079 31.9937 29.4064 31.8305 27.7717C31.7549 25.3182 31.6515 22.89 31.5205 20.4873C30.8487 20.5519 30.1771 20.6294 29.5057 20.7198C28.4149 24.656 25.8835 26.2058 21.9114 25.3694C20.121 24.4534 19.1136 22.981 18.8891 20.9523C18.5192 18.4043 19.2166 16.2086 20.9815 14.3653C23.0612 12.6596 25.2828 12.453 27.6459 13.7454C28.2467 14.3046 28.7117 14.9504 29.0407 15.6827C29.0803 16.0651 29.2352 16.375 29.5057 16.6126C29.5057 16.6643 29.5057 16.716 29.5057 16.7676C29.5057 17.1292 29.5057 17.4909 29.5057 17.8525C29.8521 17.8983 30.1621 17.8465 30.4356 17.6975C30.9482 17.6121 31.4647 17.5605 31.9855 17.5426C31.9855 17.2842 31.9855 17.026 31.9855 16.7676C32.1586 16.1795 32.2618 15.5595 32.2955 14.9078C32.2955 14.8044 32.2955 14.7012 32.2955 14.5978C32.5162 14.2855 32.6194 13.9239 32.6054 13.5129C32.637 13.0452 32.6887 12.5802 32.7604 12.118C33.0329 11.5982 33.1879 11.0299 33.2254 10.4132C33.9323 7.64886 34.9913 5.01406 36.4026 2.5089C37.1182 1.48256 38.0224 0.681795 39.1149 0.10661C40.667 -0.2409 41.7778 0.301552 42.4471 1.73397C42.9432 4.29482 42.685 6.7746 41.6721 9.1733C40.1748 12.6331 38.0309 15.6296 35.2402 18.1625Z" fill="#461257"/>
<path fill-rule="evenodd" clip-rule="evenodd" d="M12.9219 2.81779C11.1654 2.61115 9.4088 2.61115 7.65234 2.81779C7.82422 2.69535 8.03082 2.61786 8.27229 2.58531C9.71878 2.48198 11.1654 2.48198 12.6119 2.58531C12.7539 2.62846 12.8571 2.70595 12.9219 2.81779Z" fill="#461257"/>
<path fill-rule="evenodd" clip-rule="evenodd" d="M12.9221 2.81904C14.9637 3.00559 16.462 3.98716 17.4167 5.76378C17.6867 6.87714 17.7901 8.01372 17.7267 9.17348C17.5328 10.7353 16.6545 11.3809 15.0919 11.1108C14.7739 10.9667 14.5414 10.7342 14.3945 10.4134C14.3429 9.27685 14.2911 8.14019 14.2395 7.00367C13.1995 5.76251 11.8563 5.2459 10.2098 5.45381C8.40642 5.29558 6.95978 5.91553 5.87022 7.31364C5.30979 9.47338 6.05884 10.9974 8.11753 11.8857C10.4947 12.7636 12.7677 13.8485 14.9369 15.1404C16.7371 16.6815 17.3312 18.6188 16.7193 20.9524C15.7173 23.5548 13.8316 25.0788 11.0623 25.5245C9.2091 25.762 7.34926 25.8136 5.48276 25.6795C0.98583 24.9745 -0.744748 22.4172 0.290716 18.0077C0.93236 17.2775 1.73302 17.0451 2.693 17.3103C3.0222 17.4841 3.30629 17.7166 3.54543 18.0077C3.52683 19.0401 3.52683 20.0732 3.54543 21.1074C4.12787 22.0583 4.98029 22.6007 6.1027 22.7348C7.55741 22.867 9.00389 22.8152 10.4423 22.5798C12.4753 22.1034 13.3277 20.8376 12.9996 18.7826C12.6698 18.2975 12.2823 17.8584 11.8372 17.4652C10.0139 16.5535 8.1541 15.7269 6.25769 14.9855C2.00673 12.9785 0.896093 9.85294 2.92548 5.6088C4.13283 4.06205 5.70842 3.13213 7.65257 2.81904C9.40903 2.6124 11.1656 2.6124 12.9221 2.81904Z" fill="#461257"/>
<path fill-rule="evenodd" clip-rule="evenodd" d="M40.0446 3.28269C40.0683 4.26982 40.0167 5.25141 39.8897 6.22742C39.7619 6.73336 39.7102 7.25002 39.7347 7.77729C39.3487 8.26177 39.1422 8.82995 39.1147 9.48214C38.217 11.1825 37.158 12.784 35.9375 14.2867C35.9428 13.5604 36.0203 12.8373 36.17 12.1169C36.3907 11.8046 36.4939 11.443 36.48 11.032C36.7007 10.7197 36.8039 10.3581 36.7899 9.94709C37.1143 7.97846 37.6568 6.06691 38.4173 4.2126C38.6113 3.45255 39.0504 2.96176 39.7347 2.74023C39.9397 2.86669 40.0429 3.04751 40.0446 3.28269Z" fill="#461257"/>
<path fill-rule="evenodd" clip-rule="evenodd" d="M66.7024 7.46761C66.3275 8.01998 66.0691 8.63992 65.9275 9.32744C65.1904 11.0433 64.2087 12.5932 62.9827 13.977C62.8482 13.5389 62.8482 13.0739 62.9827 12.5822C62.9827 12.4788 62.9827 12.3756 62.9827 12.2722C63.2034 11.9599 63.3067 11.5983 63.2927 11.1873C63.3934 10.8874 63.4451 10.5774 63.4477 10.2574C63.6684 9.94506 63.7716 9.58348 63.7577 9.17246C64.1157 7.60679 64.5548 6.05694 65.075 4.52287C65.3405 3.84505 65.728 3.25094 66.2374 2.74053C66.6099 2.64286 66.8941 2.77201 67.0899 3.12799C67.1158 3.61879 67.1415 4.10957 67.1674 4.60036C67.119 5.58014 66.964 6.53589 66.7024 7.46761Z" fill="#461257"/>
<path fill-rule="evenodd" clip-rule="evenodd" d="M69.3369 1.73438C69.5074 2.00985 69.6367 2.31982 69.7244 2.66429C69.8516 3.77695 69.8259 4.86186 69.6469 5.919C69.7132 4.50607 69.61 3.1112 69.3369 1.73438Z" fill="#461257"/>
<path fill-rule="evenodd" clip-rule="evenodd" d="M40.0446 3.2832C40.2232 4.13324 40.2489 5.0115 40.1221 5.91797C40.079 6.0599 40.0015 6.16323 39.8896 6.22794C40.0167 5.25193 40.0683 4.27034 40.0446 3.2832Z" fill="#461257"/>
<path fill-rule="evenodd" clip-rule="evenodd" d="M46.2445 10.4132C46.4652 10.1009 46.5684 9.73934 46.5545 9.32832C46.6791 7.78714 47.1183 6.34062 47.8718 4.98871C48.2387 4.45682 48.652 4.40515 49.1117 4.83372C49.3442 7.75257 48.3627 10.1807 46.167 12.1181C46.1574 11.5527 46.1833 10.9843 46.2445 10.4132Z" fill="#461257"/>
<path fill-rule="evenodd" clip-rule="evenodd" d="M51.3584 3.2832C51.5588 3.49119 51.6879 3.74951 51.7459 4.05813C51.8725 4.9131 51.8468 5.73969 51.6684 6.53791C51.729 5.42961 51.6257 4.3447 51.3584 3.2832Z" fill="#461257"/>
<path fill-rule="evenodd" clip-rule="evenodd" d="M53.2188 9.79278C53.2367 9.27202 53.2883 8.75545 53.3737 8.24291C54.4811 6.7243 55.876 6.44016 57.5584 7.39049C58.2236 8.50903 58.1202 9.56805 57.2484 10.5677C56.3131 11.0076 55.3315 11.1367 54.3037 10.9552C53.8006 10.6852 53.439 10.2977 53.2188 9.79278Z" fill="#461257"/>
<path fill-rule="evenodd" clip-rule="evenodd" d="M17.417 5.76367C17.6174 5.97166 17.7465 6.22998 17.8045 6.5386C17.9312 7.44512 17.9055 8.32327 17.727 9.17337C17.7904 8.01361 17.687 6.87703 17.417 5.76367Z" fill="#461257"/>
<path fill-rule="evenodd" clip-rule="evenodd" d="M66.7027 7.46875C66.561 8.15627 66.3026 8.77621 65.9277 9.32858C66.0694 8.64107 66.3278 8.02112 66.7027 7.46875Z" fill="#461257"/>
<path fill-rule="evenodd" clip-rule="evenodd" d="M39.7342 7.7793C39.5851 8.38297 39.3784 8.95115 39.1143 9.48415C39.1417 8.83196 39.3483 8.26378 39.7342 7.7793Z" fill="#461257"/>
<path fill-rule="evenodd" clip-rule="evenodd" d="M53.3733 8.24414C53.2879 8.75668 53.2363 9.27325 53.2183 9.794C53.1166 9.62011 53.065 9.41351 53.0633 9.17406C53.0418 8.80473 53.1452 8.49475 53.3733 8.24414Z" fill="#461257"/>
<path fill-rule="evenodd" clip-rule="evenodd" d="M43.4541 9.32812C43.4915 9.69978 43.3881 10.0098 43.1442 10.258C43.1068 9.88639 43.2102 9.57641 43.4541 9.32812Z" fill="#461257"/>
<path fill-rule="evenodd" clip-rule="evenodd" d="M63.7575 9.17383C63.7715 9.58485 63.6682 9.94643 63.4475 10.2587C63.4336 9.84771 63.5368 9.48613 63.7575 9.17383Z" fill="#461257"/>
<path fill-rule="evenodd" clip-rule="evenodd" d="M46.5544 9.32812C46.5683 9.73915 46.4651 10.1007 46.2444 10.413C46.2305 10.002 46.3337 9.64042 46.5544 9.32812Z" fill="#461257"/>
<path fill-rule="evenodd" clip-rule="evenodd" d="M33.2247 10.4141C33.1872 11.0308 33.0322 11.5991 32.7598 12.1189C32.7973 11.5022 32.9523 10.9339 33.2247 10.4141Z" fill="#461257"/>
<path fill-rule="evenodd" clip-rule="evenodd" d="M36.7897 9.94727C36.8037 10.3583 36.7005 10.7199 36.4798 11.0322C36.4658 10.6211 36.569 10.2596 36.7897 9.94727Z" fill="#461257"/>
<path fill-rule="evenodd" clip-rule="evenodd" d="M36.4802 11.0332C36.4941 11.4442 36.3909 11.8058 36.1702 12.1181C36.1562 11.7071 36.2595 11.3455 36.4802 11.0332Z" fill="#461257"/>
<path fill-rule="evenodd" clip-rule="evenodd" d="M63.2927 11.1895C63.3066 11.6005 63.2034 11.9621 62.9827 12.2744C62.9687 11.8633 63.072 11.5018 63.2927 11.1895Z" fill="#461257"/>
<path fill-rule="evenodd" clip-rule="evenodd" d="M48.5688 12.4277C49.4987 12.5311 50.4286 12.6343 51.3585 12.7377C50.324 12.7634 49.2907 12.7377 48.2588 12.6602C48.3431 12.5491 48.4465 12.4716 48.5688 12.4277Z" fill="#461257"/>
<path fill-rule="evenodd" clip-rule="evenodd" d="M62.9825 12.582C62.848 13.0738 62.848 13.5388 62.9825 13.9769C63.0028 14.1127 62.9512 14.2161 62.8275 14.2869C62.6135 13.6776 62.6653 13.1093 62.9825 12.582Z" fill="#461257"/>
<path fill-rule="evenodd" clip-rule="evenodd" d="M59.5728 12.8926C59.3702 14.2653 59.1119 15.6086 58.7979 16.9222C58.8586 15.5219 59.1168 14.1788 59.5728 12.8926Z" fill="#461257"/>
<path fill-rule="evenodd" clip-rule="evenodd" d="M75.8469 13.668C75.8583 13.9046 75.7549 14.0596 75.537 14.1329C75.5257 13.8963 75.629 13.7413 75.8469 13.668Z" fill="#461257"/>
<path fill-rule="evenodd" clip-rule="evenodd" d="M32.6052 13.5137C32.6191 13.9247 32.5159 14.2863 32.2952 14.5986C32.2812 14.1876 32.3845 13.826 32.6052 13.5137Z" fill="#461257"/>
<path fill-rule="evenodd" clip-rule="evenodd" d="M53.2189 13.8223C53.1894 14.3422 53.0344 14.8072 52.7539 15.2171C52.7582 14.6877 52.9132 14.2227 53.2189 13.8223Z" fill="#461257"/>
<path fill-rule="evenodd" clip-rule="evenodd" d="M72.4362 13.3574C72.64 13.8421 72.5884 14.307 72.2812 14.7523C72.353 14.2901 72.4046 13.8252 72.4362 13.3574Z" fill="#461257"/>
<path fill-rule="evenodd" clip-rule="evenodd" d="M23.9261 15.9922C24.1845 15.9922 24.4427 15.9922 24.7011 15.9922C24.6522 16.5921 24.7038 17.1605 24.856 17.697C25.1003 18.1391 25.3328 18.604 25.5535 19.0919C26.7901 20.6089 26.506 21.8229 24.7011 22.7341C23.2464 22.8313 22.4455 22.1338 22.2988 20.6418C22.0409 19.2515 22.2476 17.9599 22.9187 16.7671C23.1941 16.4122 23.53 16.1538 23.9261 15.9922Z" fill="#461257"/>
<path fill-rule="evenodd" clip-rule="evenodd" d="M29.041 15.6836C29.3115 15.9212 29.4665 16.2312 29.506 16.6135C29.2355 16.3759 29.0805 16.0659 29.041 15.6836Z" fill="#461257"/>
<path fill-rule="evenodd" clip-rule="evenodd" d="M32.2955 14.9082C32.2619 15.5599 32.1587 16.1799 31.9856 16.768C31.9388 16.1031 32.042 15.4832 32.2955 14.9082Z" fill="#461257"/>
<path fill-rule="evenodd" clip-rule="evenodd" d="M23.9258 15.9933C24.1993 15.8444 24.5093 15.7926 24.8557 15.8384C24.8557 16.4583 24.8557 17.0782 24.8557 17.6982C24.7035 17.1616 24.6519 16.5933 24.7007 15.9933C24.4424 15.9933 24.1841 15.9933 23.9258 15.9933Z" fill="#461257"/>
<path fill-rule="evenodd" clip-rule="evenodd" d="M68.8721 15.373C68.9094 15.7447 68.8061 16.0547 68.5621 16.303C68.5248 15.9313 68.6281 15.6213 68.8721 15.373Z" fill="#461257"/>
<path fill-rule="evenodd" clip-rule="evenodd" d="M45.7793 15.5273C45.7469 17.1848 45.7987 18.8378 45.9343 20.4869C45.8224 20.4221 45.7449 20.3189 45.7018 20.1769C45.574 18.5999 45.5999 17.0501 45.7793 15.5273Z" fill="#461257"/>
<path fill-rule="evenodd" clip-rule="evenodd" d="M68.562 16.3027C68.5613 16.9279 68.5097 17.5479 68.4071 18.1626C68.2005 18.1626 67.9937 18.1626 67.7871 18.1626C67.897 18.0225 68.052 17.9709 68.2521 18.0076C68.2412 17.3993 68.3446 16.8311 68.562 16.3027Z" fill="#461257"/>
<path fill-rule="evenodd" clip-rule="evenodd" d="M29.5059 16.7676C29.6548 17.0411 29.7066 17.3511 29.6608 17.6975C29.9192 17.6975 30.1774 17.6975 30.4358 17.6975C30.1622 17.8464 29.8523 17.8982 29.5059 17.8525C29.5059 17.4909 29.5059 17.1292 29.5059 16.7676Z" fill="#461257"/>
<path fill-rule="evenodd" clip-rule="evenodd" d="M78.1713 16.6133C78.2308 17.2315 78.1274 17.7997 77.8613 18.3181C77.884 17.7157 77.9873 17.1474 78.1713 16.6133Z" fill="#461257"/>
<path fill-rule="evenodd" clip-rule="evenodd" d="M41.749 18.0078C41.524 18.1321 41.2658 18.2096 40.9741 18.2403C39.6308 18.2919 38.2877 18.3437 36.9445 18.3953C36.8291 18.5563 36.6742 18.6338 36.4795 18.6278C36.5497 18.4793 36.6529 18.35 36.7895 18.2403C38.4443 18.18 40.0975 18.1025 41.749 18.0078Z" fill="#461257"/>
<path fill-rule="evenodd" clip-rule="evenodd" d="M55.6988 17.6973C55.6715 18.1974 55.5681 18.6624 55.3888 19.0921C55.3447 18.5762 55.448 18.1112 55.6988 17.6973Z" fill="#461257"/>
<path fill-rule="evenodd" clip-rule="evenodd" d="M62.8274 19.248C62.8387 19.4847 62.7353 19.6397 62.5174 19.713C62.5061 19.4763 62.6095 19.3214 62.8274 19.248Z" fill="#461257"/>
<path fill-rule="evenodd" clip-rule="evenodd" d="M71.5066 18.627C71.4269 19.6068 71.3753 20.5883 71.3516 21.5717C71.2487 21.2137 71.1971 20.8262 71.1966 20.4093C71.1732 19.772 71.2766 19.1778 71.5066 18.627Z" fill="#461257"/>
<path fill-rule="evenodd" clip-rule="evenodd" d="M77.8614 18.4727C77.899 19.5549 77.744 20.5881 77.3965 21.5724C77.4207 20.4996 77.5756 19.4663 77.8614 18.4727Z" fill="#461257"/>
<path fill-rule="evenodd" clip-rule="evenodd" d="M55.3889 19.0918C55.3166 20.0203 55.265 20.9502 55.2339 21.8815C55.1311 21.5758 55.0795 21.2401 55.0789 20.8741C55.0682 20.2395 55.1714 19.6454 55.3889 19.0918Z" fill="#461257"/>
<path fill-rule="evenodd" clip-rule="evenodd" d="M42.0596 20.7987C42.1969 20.601 42.3519 20.601 42.5245 20.7987C42.7237 21.1894 42.8271 21.6026 42.8345 22.0386C42.6532 21.7054 42.4982 21.3436 42.3695 20.9537C42.2987 20.83 42.1953 20.7784 42.0596 20.7987Z" fill="#461257"/>
<path fill-rule="evenodd" clip-rule="evenodd" d="M64.9972 21.1081C64.9038 21.4376 64.9038 21.7992 64.9972 22.193C64.6784 21.8277 64.6268 21.4144 64.8423 20.9531C64.9363 20.9723 64.9879 21.024 64.9972 21.1081Z" fill="#461257"/>
<path fill-rule="evenodd" clip-rule="evenodd" d="M35.2403 18.1621C35.1045 20.7942 35.0529 23.429 35.0853 26.0664C34.9054 23.82 34.8795 21.5469 35.0078 19.247C35.0367 18.854 35.1142 18.4924 35.2403 18.1621Z" fill="#461257"/>
<path fill-rule="evenodd" clip-rule="evenodd" d="M50.1185 22.3477C49.9872 22.5749 49.7806 22.7041 49.4985 22.7351C48.8493 22.861 48.2293 22.8351 47.6387 22.6576C48.4897 22.7119 49.3162 22.6087 50.1185 22.3477Z" fill="#461257"/>
<path fill-rule="evenodd" clip-rule="evenodd" d="M31.5205 20.4863C31.6514 22.8891 31.7548 25.3172 31.8304 27.7707C31.708 27.5988 31.6305 27.3922 31.5979 27.1507C31.5205 24.9299 31.4946 22.7084 31.5205 20.4863Z" fill="#461257"/>
<path fill-rule="evenodd" clip-rule="evenodd" d="M62.6729 21.8828C63.0605 23.0192 63.2671 24.2075 63.2928 25.4475C63.0056 24.293 62.7989 23.1049 62.6729 21.8828Z" fill="#461257"/>
<path fill-rule="evenodd" clip-rule="evenodd" d="M73.9867 24.0525C74.0118 23.7383 73.986 23.4284 73.9092 23.1226C73.8662 23.2646 73.7887 23.3678 73.6768 23.4326C73.7036 23.0174 73.8586 22.6556 74.1417 22.3477C74.3351 22.9521 74.2835 23.5204 73.9867 24.0525Z" fill="#461257"/>
<path fill-rule="evenodd" clip-rule="evenodd" d="M35.8604 22.0371C36.1852 23.1868 36.3918 24.3749 36.4803 25.6018C36.1179 24.4597 35.9113 23.2714 35.8604 22.0371Z" fill="#461257"/>
<path fill-rule="evenodd" clip-rule="evenodd" d="M38.1846 22.8125C38.4814 23.8043 38.6364 24.8374 38.6495 25.9122C38.3789 24.9163 38.2239 23.883 38.1846 22.8125Z" fill="#461257"/>
<path fill-rule="evenodd" clip-rule="evenodd" d="M58.333 24.5163C58.3423 24.4322 58.3939 24.3805 58.488 24.3613C58.6424 25.2855 58.694 26.2154 58.643 27.1511C58.5396 26.2728 58.4364 25.3946 58.333 24.5163Z" fill="#461257"/>
<path fill-rule="evenodd" clip-rule="evenodd" d="M63.2927 25.4473C63.4723 27.2285 63.4982 29.0366 63.3702 30.8718C63.3271 31.0138 63.2496 31.117 63.1377 31.1818C63.28 29.275 63.3317 27.3635 63.2927 25.4473Z" fill="#461257"/>
<path fill-rule="evenodd" clip-rule="evenodd" d="M35.0856 26.5312C35.1489 28.1848 35.3556 29.838 35.7056 31.4908C35.4784 31.3595 35.3491 31.1529 35.3181 30.8709C35.1203 29.4314 35.0429 27.9849 35.0856 26.5312Z" fill="#461257"/>
<path fill-rule="evenodd" clip-rule="evenodd" d="M58.6434 27.9258C58.8683 28.7719 59.0233 29.6502 59.1084 30.5605C58.7725 29.7345 58.6175 28.8562 58.6434 27.9258Z" fill="#461257"/>
<path fill-rule="evenodd" clip-rule="evenodd" d="M76.4666 27.1504C76.44 27.9921 76.2334 28.7671 75.8467 29.4752C75.9969 28.6676 76.2036 27.8926 76.4666 27.1504Z" fill="#461257"/>
<path fill-rule="evenodd" clip-rule="evenodd" d="M72.9019 28.7012C72.9986 28.7658 73.0502 28.8692 73.0569 29.0111C72.6394 30.9102 71.9935 32.7184 71.1196 34.4357C70.8355 34.7198 70.5512 35.004 70.2671 35.2881C69.5268 35.3803 69.165 35.0444 69.1822 34.2807C69.2033 33.9141 69.2551 33.5525 69.3372 33.1958C69.6441 32.8401 69.825 32.4269 69.8797 31.9559C70.7569 30.7431 71.7643 29.6582 72.9019 28.7012Z" fill="#461257"/>
<path fill-rule="evenodd" clip-rule="evenodd" d="M62.0529 29.7871C62.2719 30.2085 62.3753 30.6735 62.3629 31.182C62.1121 30.768 62.0087 30.3031 62.0529 29.7871Z" fill="#461257"/>
<path fill-rule="evenodd" clip-rule="evenodd" d="M74.7617 32.8867C74.7991 33.2584 74.6957 33.5683 74.4518 33.8166C74.4144 33.445 74.5178 33.135 74.7617 32.8867Z" fill="#461257"/>
</svg>
