<svg width="24" height="24" viewBox="0 0 24 24" fill="none" xmlns="http://www.w3.org/2000/svg">
<g clip-path="url(#clip0_1978_2419)">
<mask id="path-1-inside-1_1978_2419" fill="white">
<path d="M17.8388 4.32031C17.1725 4.32031 16.5651 4.46495 16.0856 4.73281C15.8344 4.87316 15.6077 5.06024 15.4472 5.28688C15.4184 5.28204 15.3892 5.27984 15.36 5.28031H12.96C12.8964 5.27941 12.8332 5.29116 12.7742 5.31488C12.7152 5.3386 12.6615 5.37381 12.6162 5.41848C12.5709 5.46314 12.5349 5.51636 12.5104 5.57504C12.4858 5.63372 12.4732 5.6967 12.4732 5.76031C12.4732 5.82393 12.4858 5.8869 12.5104 5.94559C12.5349 6.00427 12.5709 6.05749 12.6162 6.10215C12.6615 6.14681 12.7152 6.18202 12.7742 6.20574C12.8332 6.22946 12.8964 6.24121 12.96 6.24031H15.2372C15.2641 6.36827 15.3111 6.48874 15.375 6.60031C15.3576 6.66771 15.355 6.73808 15.3675 6.80656C15.8344 9.37478 15.7102 12.0721 15.0413 14.0675C14.7068 15.0652 14.2375 15.8822 13.6697 16.4328C13.1019 16.9834 12.4523 17.2803 11.6484 17.2803C11.1092 17.2803 10.674 16.9158 10.5075 16.0494C10.341 15.1829 10.5387 13.8458 11.4572 12.2384C11.4688 12.2176 11.4788 12.196 11.4872 12.1738C11.6721 12.1158 11.8459 12.0505 11.9972 11.96C12.2298 11.8209 12.4828 11.5747 12.4828 11.2166C12.4828 10.8817 12.4012 10.5487 12.2522 10.25C12.1777 10.1007 12.0866 9.95953 11.9531 9.83563C11.8197 9.71173 11.6225 9.5975 11.3841 9.5975H6.855C6.80781 9.5975 6.76372 9.6053 6.72 9.61344V6.72031C6.71999 6.59301 6.66941 6.47093 6.5794 6.38092C6.48938 6.2909 6.3673 6.24033 6.24 6.24031H0.96C0.8327 6.24033 0.710618 6.2909 0.620603 6.38092C0.530589 6.47093 0.480013 6.59301 0.48 6.72031V11.5203C0.416395 11.5194 0.353245 11.5312 0.29422 11.5549C0.235195 11.5786 0.181473 11.6138 0.136175 11.6585C0.090878 11.7031 0.0549087 11.7564 0.0303578 11.815C0.00580688 11.8737 -0.00683594 11.9367 -0.00683594 12.0003C-0.00683594 12.0639 0.00580688 12.1269 0.0303578 12.1856C0.0549087 12.2443 0.090878 12.2975 0.136175 12.3421C0.181473 12.3868 0.235195 12.422 0.29422 12.4457C0.353245 12.4695 0.416395 12.4812 0.48 12.4803H4.63875C2.64257 13.8032 1.94438 15.6884 1.94438 15.6884C1.92392 15.7499 1.91612 15.8148 1.92143 15.8794C1.92674 15.9439 1.94505 16.0067 1.97527 16.064C2.00548 16.1213 2.04698 16.1719 2.09726 16.2127C2.14753 16.2535 2.20555 16.2837 2.26781 16.3016L3.31313 16.6006C3.04058 17.0863 2.88 17.6456 2.88 18.2403C2.88 20.0904 4.38992 21.6003 6.24 21.6003C8.09008 21.6003 9.6 20.0904 9.6 18.2403H11.6484H15.3891C15.4463 18.714 15.5925 19.0648 15.8316 19.3091C16.1454 19.6298 16.5542 19.6803 16.8 19.6803C16.905 19.6803 17.0045 19.6561 17.0991 19.6213C17.6273 20.788 18.8015 21.6003 20.16 21.6003C22.0098 21.6003 23.52 20.0901 23.52 18.2403C23.52 17.854 23.4477 17.4847 23.3269 17.1378C23.498 17.0902 23.681 16.9953 23.8078 16.8294C23.9522 16.6404 24 16.4097 24 16.1863C24 15.9559 23.9405 15.7671 23.8191 15.4925C23.6977 15.2179 23.5057 14.8987 23.2144 14.5925C22.6702 14.0205 21.7645 13.5181 20.4413 13.4534C20.4121 10.8218 19.1135 8.72645 18.2869 7.65313C18.4302 7.63335 18.5625 7.60188 18.6853 7.55563C18.9259 7.46497 19.134 7.29954 19.2563 7.1C19.5008 6.70093 19.4447 6.31635 19.4447 5.99938C19.4447 5.6834 19.5007 5.30057 19.2563 4.90156C19.134 4.70206 18.926 4.53574 18.6853 4.445C18.4447 4.35426 18.1717 4.32018 17.8388 4.32031ZM17.8388 5.28031C17.8391 5.28031 17.8394 5.28031 17.8397 5.28031C18.1 5.28021 18.2643 5.31328 18.3459 5.34406C18.4276 5.37484 18.4269 5.38444 18.4378 5.40219C18.4596 5.4377 18.4847 5.65391 18.4847 5.99938C18.4847 6.34576 18.4595 6.56311 18.4378 6.59844C18.427 6.6161 18.4276 6.62578 18.3459 6.65656C18.2642 6.68735 18.0992 6.72031 17.8388 6.72031C17.5781 6.72031 17.3311 6.68964 17.1122 6.63781C17.1085 6.63695 17.1055 6.63588 17.1019 6.635L16.7353 6.51219C16.6716 6.4855 16.6069 6.45959 16.5534 6.42969C16.2554 6.26309 16.17 6.09834 16.17 5.99938C16.17 5.90122 16.2553 5.73747 16.5534 5.57094C16.8516 5.4044 17.3175 5.28031 17.8388 5.28031ZM1.44 7.20031H5.76V11.1697C5.75964 11.1854 5.75719 11.2009 5.75719 11.2166C5.75719 11.2242 5.75977 11.2315 5.76 11.2391V11.5203H1.44V7.20031ZM16.3659 7.40188L16.3988 7.41313C16.5213 7.4633 16.6502 7.50537 16.7841 7.54156L16.9922 7.61094C17.0896 7.71107 19.4001 10.1817 19.4334 13.5003C17.4414 13.8027 15.6465 15.3097 15.3919 17.2803H14.1038C14.1763 17.2187 14.2693 17.1896 14.3381 17.1228C15.0543 16.4284 15.582 15.4754 15.9516 14.3731C16.6207 12.377 16.7081 9.87018 16.3659 7.40188ZM6.93094 10.5631H11.3091C11.3272 10.5833 11.3562 10.618 11.3878 10.6813C11.45 10.8058 11.4827 10.9857 11.4966 11.1331C11.4058 11.1867 11.2137 11.2615 10.9584 11.3216C10.4434 11.4427 9.68044 11.5175 8.84906 11.5175C8.01823 11.5175 7.39852 11.4396 7.0425 11.33C6.8681 11.2763 6.76639 11.214 6.73031 11.1838C6.73656 11.031 6.78304 10.8199 6.85219 10.6813C6.88375 10.618 6.91285 10.5833 6.93094 10.5631ZM6.81281 12.4803H8.715C8.76121 12.4807 8.80171 12.4831 8.84906 12.4831C8.89672 12.4831 8.94154 12.4807 8.98875 12.4803H10.3331C9.65417 13.9208 9.37188 15.2296 9.56438 16.2313C9.64205 16.6354 9.81189 16.9766 10.0163 17.2803H9.1875L3.1125 15.545C3.36672 14.9436 4.19992 13.247 6.81281 12.4803ZM20.16 14.4003C21.4168 14.4003 22.1058 14.8203 22.5188 15.2544C22.7252 15.4714 22.8598 15.6979 22.9406 15.8806C23.0214 16.0634 23.04 16.2435 23.04 16.1863C23.04 16.2304 23.0435 16.2075 23.0419 16.2153C22.95 16.2294 22.6561 16.2112 22.2684 16.1553C21.4705 16.0402 20.2774 15.8537 19.0219 16.3541C19.0219 16.3544 19.0219 16.3547 19.0219 16.355C17.9445 16.7854 17.4339 17.5232 17.1525 18.0678C17.0118 18.3401 16.9116 18.5639 16.8441 18.6631C16.7765 18.7624 16.835 18.7203 16.8 18.7203C16.657 18.7203 16.5858 18.7083 16.5169 18.6378C16.4483 18.5677 16.3214 18.3495 16.32 17.7688C16.3403 17.062 16.616 16.4197 17.0466 15.8863C17.7794 15.001 18.9696 14.4003 20.16 14.4003ZM4.24031 16.865L5.33438 17.1781C5.02167 17.4432 4.8 17.8026 4.8 18.2403C4.8 19.0299 5.45041 19.6803 6.24 19.6803C7.02959 19.6803 7.68 19.0299 7.68 18.2403C7.68 18.0673 7.55144 17.9493 7.49438 17.795L8.63063 18.1194C8.63267 18.16 8.64 18.1992 8.64 18.2403C8.64 19.5717 7.57136 20.6403 6.24 20.6403C4.90864 20.6403 3.84 19.5717 3.84 18.2403C3.84 17.7866 3.96505 17.3654 4.18219 17.0047C4.20883 16.9615 4.22844 16.9143 4.24031 16.865ZM20.8519 16.9878C21.3063 16.9898 21.7389 17.0493 22.1316 17.1059C22.1839 17.1135 22.23 17.118 22.2806 17.1256C22.4565 17.459 22.56 17.8352 22.56 18.2403C22.56 19.571 21.4907 20.6403 20.16 20.6403C19.0376 20.6403 18.1094 19.8722 17.8434 18.8384C17.8971 18.7285 17.9479 18.6184 18.0047 18.5084C18.1988 18.1327 18.4321 17.7588 18.96 17.4509C18.8092 17.6784 18.72 17.9496 18.72 18.2403C18.72 19.0299 19.3704 19.6803 20.16 19.6803C20.9496 19.6803 21.6 19.0299 21.6 18.2403C21.6 17.7022 21.2942 17.2348 20.8519 16.9878ZM6.24 17.7603C6.51121 17.7603 6.72 17.9691 6.72 18.2403C6.72 18.5115 6.51121 18.7203 6.24 18.7203C5.96879 18.7203 5.76 18.5115 5.76 18.2403C5.76 17.9691 5.96879 17.7603 6.24 17.7603ZM20.16 17.7603C20.4312 17.7603 20.64 17.9691 20.64 18.2403C20.64 18.5115 20.4312 18.7203 20.16 18.7203C19.8888 18.7203 19.68 18.5115 19.68 18.2403C19.68 17.9691 19.8888 17.7603 20.16 17.7603Z"/>
</mask>
<path d="M17.8388 4.32031C17.1725 4.32031 16.5651 4.46495 16.0856 4.73281C15.8344 4.87316 15.6077 5.06024 15.4472 5.28688C15.4184 5.28204 15.3892 5.27984 15.36 5.28031H12.96C12.8964 5.27941 12.8332 5.29116 12.7742 5.31488C12.7152 5.3386 12.6615 5.37381 12.6162 5.41848C12.5709 5.46314 12.5349 5.51636 12.5104 5.57504C12.4858 5.63372 12.4732 5.6967 12.4732 5.76031C12.4732 5.82393 12.4858 5.8869 12.5104 5.94559C12.5349 6.00427 12.5709 6.05749 12.6162 6.10215C12.6615 6.14681 12.7152 6.18202 12.7742 6.20574C12.8332 6.22946 12.8964 6.24121 12.96 6.24031H15.2372C15.2641 6.36827 15.3111 6.48874 15.375 6.60031C15.3576 6.66771 15.355 6.73808 15.3675 6.80656C15.8344 9.37478 15.7102 12.0721 15.0413 14.0675C14.7068 15.0652 14.2375 15.8822 13.6697 16.4328C13.1019 16.9834 12.4523 17.2803 11.6484 17.2803C11.1092 17.2803 10.674 16.9158 10.5075 16.0494C10.341 15.1829 10.5387 13.8458 11.4572 12.2384C11.4688 12.2176 11.4788 12.196 11.4872 12.1738C11.6721 12.1158 11.8459 12.0505 11.9972 11.96C12.2298 11.8209 12.4828 11.5747 12.4828 11.2166C12.4828 10.8817 12.4012 10.5487 12.2522 10.25C12.1777 10.1007 12.0866 9.95953 11.9531 9.83563C11.8197 9.71173 11.6225 9.5975 11.3841 9.5975H6.855C6.80781 9.5975 6.76372 9.6053 6.72 9.61344V6.72031C6.71999 6.59301 6.66941 6.47093 6.5794 6.38092C6.48938 6.2909 6.3673 6.24033 6.24 6.24031H0.96C0.8327 6.24033 0.710618 6.2909 0.620603 6.38092C0.530589 6.47093 0.480013 6.59301 0.48 6.72031V11.5203C0.416395 11.5194 0.353245 11.5312 0.29422 11.5549C0.235195 11.5786 0.181473 11.6138 0.136175 11.6585C0.090878 11.7031 0.0549087 11.7564 0.0303578 11.815C0.00580688 11.8737 -0.00683594 11.9367 -0.00683594 12.0003C-0.00683594 12.0639 0.00580688 12.1269 0.0303578 12.1856C0.0549087 12.2443 0.090878 12.2975 0.136175 12.3421C0.181473 12.3868 0.235195 12.422 0.29422 12.4457C0.353245 12.4695 0.416395 12.4812 0.48 12.4803H4.63875C2.64257 13.8032 1.94438 15.6884 1.94438 15.6884C1.92392 15.7499 1.91612 15.8148 1.92143 15.8794C1.92674 15.9439 1.94505 16.0067 1.97527 16.064C2.00548 16.1213 2.04698 16.1719 2.09726 16.2127C2.14753 16.2535 2.20555 16.2837 2.26781 16.3016L3.31313 16.6006C3.04058 17.0863 2.88 17.6456 2.88 18.2403C2.88 20.0904 4.38992 21.6003 6.24 21.6003C8.09008 21.6003 9.6 20.0904 9.6 18.2403H11.6484H15.3891C15.4463 18.714 15.5925 19.0648 15.8316 19.3091C16.1454 19.6298 16.5542 19.6803 16.8 19.6803C16.905 19.6803 17.0045 19.6561 17.0991 19.6213C17.6273 20.788 18.8015 21.6003 20.16 21.6003C22.0098 21.6003 23.52 20.0901 23.52 18.2403C23.52 17.854 23.4477 17.4847 23.3269 17.1378C23.498 17.0902 23.681 16.9953 23.8078 16.8294C23.9522 16.6404 24 16.4097 24 16.1863C24 15.9559 23.9405 15.7671 23.8191 15.4925C23.6977 15.2179 23.5057 14.8987 23.2144 14.5925C22.6702 14.0205 21.7645 13.5181 20.4413 13.4534C20.4121 10.8218 19.1135 8.72645 18.2869 7.65313C18.4302 7.63335 18.5625 7.60188 18.6853 7.55563C18.9259 7.46497 19.134 7.29954 19.2563 7.1C19.5008 6.70093 19.4447 6.31635 19.4447 5.99938C19.4447 5.6834 19.5007 5.30057 19.2563 4.90156C19.134 4.70206 18.926 4.53574 18.6853 4.445C18.4447 4.35426 18.1717 4.32018 17.8388 4.32031ZM17.8388 5.28031C17.8391 5.28031 17.8394 5.28031 17.8397 5.28031C18.1 5.28021 18.2643 5.31328 18.3459 5.34406C18.4276 5.37484 18.4269 5.38444 18.4378 5.40219C18.4596 5.4377 18.4847 5.65391 18.4847 5.99938C18.4847 6.34576 18.4595 6.56311 18.4378 6.59844C18.427 6.6161 18.4276 6.62578 18.3459 6.65656C18.2642 6.68735 18.0992 6.72031 17.8388 6.72031C17.5781 6.72031 17.3311 6.68964 17.1122 6.63781C17.1085 6.63695 17.1055 6.63588 17.1019 6.635L16.7353 6.51219C16.6716 6.4855 16.6069 6.45959 16.5534 6.42969C16.2554 6.26309 16.17 6.09834 16.17 5.99938C16.17 5.90122 16.2553 5.73747 16.5534 5.57094C16.8516 5.4044 17.3175 5.28031 17.8388 5.28031ZM1.44 7.20031H5.76V11.1697C5.75964 11.1854 5.75719 11.2009 5.75719 11.2166C5.75719 11.2242 5.75977 11.2315 5.76 11.2391V11.5203H1.44V7.20031ZM16.3659 7.40188L16.3988 7.41313C16.5213 7.4633 16.6502 7.50537 16.7841 7.54156L16.9922 7.61094C17.0896 7.71107 19.4001 10.1817 19.4334 13.5003C17.4414 13.8027 15.6465 15.3097 15.3919 17.2803H14.1038C14.1763 17.2187 14.2693 17.1896 14.3381 17.1228C15.0543 16.4284 15.582 15.4754 15.9516 14.3731C16.6207 12.377 16.7081 9.87018 16.3659 7.40188ZM6.93094 10.5631H11.3091C11.3272 10.5833 11.3562 10.618 11.3878 10.6813C11.45 10.8058 11.4827 10.9857 11.4966 11.1331C11.4058 11.1867 11.2137 11.2615 10.9584 11.3216C10.4434 11.4427 9.68044 11.5175 8.84906 11.5175C8.01823 11.5175 7.39852 11.4396 7.0425 11.33C6.8681 11.2763 6.76639 11.214 6.73031 11.1838C6.73656 11.031 6.78304 10.8199 6.85219 10.6813C6.88375 10.618 6.91285 10.5833 6.93094 10.5631ZM6.81281 12.4803H8.715C8.76121 12.4807 8.80171 12.4831 8.84906 12.4831C8.89672 12.4831 8.94154 12.4807 8.98875 12.4803H10.3331C9.65417 13.9208 9.37188 15.2296 9.56438 16.2313C9.64205 16.6354 9.81189 16.9766 10.0163 17.2803H9.1875L3.1125 15.545C3.36672 14.9436 4.19992 13.247 6.81281 12.4803ZM20.16 14.4003C21.4168 14.4003 22.1058 14.8203 22.5188 15.2544C22.7252 15.4714 22.8598 15.6979 22.9406 15.8806C23.0214 16.0634 23.04 16.2435 23.04 16.1863C23.04 16.2304 23.0435 16.2075 23.0419 16.2153C22.95 16.2294 22.6561 16.2112 22.2684 16.1553C21.4705 16.0402 20.2774 15.8537 19.0219 16.3541C19.0219 16.3544 19.0219 16.3547 19.0219 16.355C17.9445 16.7854 17.4339 17.5232 17.1525 18.0678C17.0118 18.3401 16.9116 18.5639 16.8441 18.6631C16.7765 18.7624 16.835 18.7203 16.8 18.7203C16.657 18.7203 16.5858 18.7083 16.5169 18.6378C16.4483 18.5677 16.3214 18.3495 16.32 17.7688C16.3403 17.062 16.616 16.4197 17.0466 15.8863C17.7794 15.001 18.9696 14.4003 20.16 14.4003ZM4.24031 16.865L5.33438 17.1781C5.02167 17.4432 4.8 17.8026 4.8 18.2403C4.8 19.0299 5.45041 19.6803 6.24 19.6803C7.02959 19.6803 7.68 19.0299 7.68 18.2403C7.68 18.0673 7.55144 17.9493 7.49438 17.795L8.63063 18.1194C8.63267 18.16 8.64 18.1992 8.64 18.2403C8.64 19.5717 7.57136 20.6403 6.24 20.6403C4.90864 20.6403 3.84 19.5717 3.84 18.2403C3.84 17.7866 3.96505 17.3654 4.18219 17.0047C4.20883 16.9615 4.22844 16.9143 4.24031 16.865ZM20.8519 16.9878C21.3063 16.9898 21.7389 17.0493 22.1316 17.1059C22.1839 17.1135 22.23 17.118 22.2806 17.1256C22.4565 17.459 22.56 17.8352 22.56 18.2403C22.56 19.571 21.4907 20.6403 20.16 20.6403C19.0376 20.6403 18.1094 19.8722 17.8434 18.8384C17.8971 18.7285 17.9479 18.6184 18.0047 18.5084C18.1988 18.1327 18.4321 17.7588 18.96 17.4509C18.8092 17.6784 18.72 17.9496 18.72 18.2403C18.72 19.0299 19.3704 19.6803 20.16 19.6803C20.9496 19.6803 21.6 19.0299 21.6 18.2403C21.6 17.7022 21.2942 17.2348 20.8519 16.9878ZM6.24 17.7603C6.51121 17.7603 6.72 17.9691 6.72 18.2403C6.72 18.5115 6.51121 18.7203 6.24 18.7203C5.96879 18.7203 5.76 18.5115 5.76 18.2403C5.76 17.9691 5.96879 17.7603 6.24 17.7603ZM20.16 17.7603C20.4312 17.7603 20.64 17.9691 20.64 18.2403C20.64 18.5115 20.4312 18.7203 20.16 18.7203C19.8888 18.7203 19.68 18.5115 19.68 18.2403C19.68 17.9691 19.8888 17.7603 20.16 17.7603Z" fill="#383444" stroke="white" stroke-width="0.3" mask="url(#path-1-inside-1_1978_2419)"/>
</g>
<defs>
<clipPath id="clip0_1978_2419">
<rect width="24" height="24" fill="white"/>
</clipPath>
</defs>
</svg>
