<svg width="24" height="24" viewBox="0 0 24 24" fill="none" xmlns="http://www.w3.org/2000/svg">
<g clip-path="url(#clip0_1978_2441)">
<path d="M11.25 15H12.75V18H11.25V15Z" fill="#383444"/>
<path d="M15 13.5H16.5V18H15V13.5Z" fill="#383444"/>
<path d="M7.5 10.5H9V18H7.5V10.5Z" fill="#383444"/>
<path d="M16.35 3.75V3.9H16.5H18.75C19.108 3.9 19.4514 4.04223 19.7046 4.29541C19.9578 4.54858 20.1 4.89196 20.1 5.25V21C20.1 21.358 19.9578 21.7014 19.7046 21.9546C19.4514 22.2078 19.108 22.35 18.75 22.35H5.25C4.89196 22.35 4.54858 22.2078 4.29541 21.9546C4.04223 21.7014 3.9 21.358 3.9 21V5.25C3.9 4.89196 4.04223 4.54858 4.29541 4.29541C4.54858 4.04223 4.89196 3.9 5.25 3.9H7.5H7.65V3.75V3C7.65 2.64196 7.79223 2.29858 8.04541 2.04541C8.29858 1.79223 8.64196 1.65 9 1.65H15C15.358 1.65 15.7014 1.79223 15.9546 2.04541C16.2078 2.29858 16.35 2.64196 16.35 3V3.75ZM9 2.85H8.85V3V6V6.15H9H15H15.15V6V3V2.85H15H9ZM18.75 21.15H18.9V21V5.25V5.1H18.75H16.5H16.35V5.25V7.35H7.65V5.25V5.1H7.5H5.25H5.1V5.25V21V21.15H5.25H18.75Z" fill="#383444" stroke="white" stroke-width="0.3"/>
</g>
<defs>
<clipPath id="clip0_1978_2441">
<rect width="24" height="24" fill="white"/>
</clipPath>
</defs>
</svg>
