<svg width="36" height="32" viewBox="0 0 36 32" fill="none" xmlns="http://www.w3.org/2000/svg">
<path d="M17.5611 30.2863C26.704 30.2863 31.8468 25.1434 31.8468 16.0006C31.8468 6.8577 26.704 1.71484 17.5611 1.71484C8.41825 1.71484 3.27539 6.8577 3.27539 16.0006C3.27539 25.1434 8.41825 30.2863 17.5611 30.2863Z" fill="#D4E2F6" stroke="#266DD3" stroke-width="1.5" stroke-linecap="round" stroke-linejoin="round"/>
<path d="M11.8467 21.7157L23.2753 10.2871" stroke="#266DD3" stroke-width="1.5" stroke-linecap="round" stroke-linejoin="round"/>
<path d="M12.9895 12.5728C13.6207 12.5728 14.1324 12.0611 14.1324 11.43C14.1324 10.7988 13.6207 10.2871 12.9895 10.2871C12.3584 10.2871 11.8467 10.7988 11.8467 11.43C11.8467 12.0611 12.3584 12.5728 12.9895 12.5728Z" fill="#266DD3" stroke="#266DD3" stroke-width="1.5" stroke-linecap="round" stroke-linejoin="round"/>
<path d="M22.1321 21.7154C22.7633 21.7154 23.275 21.2037 23.275 20.5725C23.275 19.9414 22.7633 19.4297 22.1321 19.4297C21.5009 19.4297 20.9893 19.9414 20.9893 20.5725C20.9893 21.2037 21.5009 21.7154 22.1321 21.7154Z" fill="#266DD3" stroke="#266DD3" stroke-width="1.5" stroke-linecap="round" stroke-linejoin="round"/>
</svg>
