<svg width="24" height="24" viewBox="0 0 24 24" fill="currentColor" xmlns="http://www.w3.org/2000/svg">
<path d="M4.15 21V21V13C4.15 12.7746 4.23955 12.5584 4.39896 12.399C4.55837 12.2396 4.77457 12.15 5 12.15C5.22543 12.15 5.44163 12.2396 5.60104 12.399C5.76045 12.5584 5.85 12.7746 5.85 13V21V21C5.85003 21.1117 5.82806 21.2222 5.78536 21.3253C5.74266 21.4285 5.68005 21.5222 5.60112 21.6011C5.52219 21.68 5.42848 21.7427 5.32534 21.7854C5.2222 21.8281 5.11167 21.85 5.00004 21.85H4.99996C4.88833 21.85 4.7778 21.8281 4.67466 21.7854C4.57152 21.7427 4.47781 21.68 4.39888 21.6011C4.31995 21.5222 4.25734 21.4285 4.21464 21.3253C4.17194 21.2222 4.14997 21.1117 4.15 21ZM9.15 21V21V3C9.15 2.77457 9.23955 2.55837 9.39896 2.39896C9.55837 2.23955 9.77457 2.15 10 2.15C10.2254 2.15 10.4416 2.23955 10.601 2.39896C10.7604 2.55837 10.85 2.77457 10.85 3V21V21C10.85 21.1117 10.8281 21.2222 10.7854 21.3253C10.7427 21.4285 10.68 21.5222 10.6011 21.6011C10.5222 21.68 10.4285 21.7427 10.3253 21.7854C10.2222 21.8281 10.1117 21.85 10 21.85H9.99996C9.88833 21.85 9.7778 21.8281 9.67466 21.7854C9.57152 21.7427 9.47781 21.68 9.39888 21.6011C9.31995 21.5222 9.25734 21.4285 9.21464 21.3253C9.17194 21.2222 9.14997 21.1117 9.15 21ZM14.15 21V21V9C14.15 8.77457 14.2396 8.55837 14.399 8.39896C14.5584 8.23955 14.7746 8.15 15 8.15C15.2254 8.15 15.4416 8.23955 15.601 8.39896C15.7604 8.55837 15.85 8.77457 15.85 9V21V21C15.85 21.1117 15.8281 21.2222 15.7854 21.3253C15.7427 21.4285 15.68 21.5222 15.6011 21.6011C15.5222 21.68 15.4285 21.7427 15.3253 21.7854C15.2222 21.8281 15.1117 21.85 15 21.85H15C14.8883 21.85 14.7778 21.8281 14.6747 21.7854C14.5715 21.7427 14.4778 21.68 14.3989 21.6011C14.32 21.5222 14.2573 21.4285 14.2146 21.3253C14.1719 21.2222 14.15 21.1117 14.15 21ZM19.15 21V21V17C19.15 16.7746 19.2396 16.5584 19.399 16.399C19.5584 16.2396 19.7746 16.15 20 16.15C20.2254 16.15 20.4416 16.2396 20.601 16.399C20.7604 16.5584 20.85 16.7746 20.85 17V21V21C20.85 21.1117 20.8281 21.2222 20.7854 21.3253C20.7427 21.4285 20.68 21.5222 20.6011 21.6011C20.5222 21.68 20.4285 21.7427 20.3253 21.7854C20.2222 21.8281 20.1117 21.85 20 21.85H20C19.8883 21.85 19.7778 21.8281 19.6747 21.7854C19.5715 21.7427 19.4778 21.68 19.3989 21.6011C19.32 21.5222 19.2573 21.4285 19.2146 21.3253C19.1719 21.2222 19.15 21.1117 19.15 21Z" fill="currentColor" stroke="white" stroke-width="0.3"/>
</svg>
