<svg width="24" height="24" viewBox="0 0 24 24" fill="none" xmlns="http://www.w3.org/2000/svg">
<path d="M10.29 15.29L12.3891 13.2H12.59V13L12.4489 12.8583L12.3065 13H5C4.73478 13 4.48043 12.8946 4.29289 12.7071C4.10536 12.5196 4 12.2652 4 12C4 11.7348 4.10536 11.4804 4.29289 11.2929C4.48043 11.1054 4.73478 11 5 11H12.3065L12.4489 11.1417L12.59 11V10.8H12.3891L10.29 8.71V15.29ZM10.29 15.29C10.1963 15.383 10.1219 15.4936 10.0711 15.6154M10.29 15.29L10.0711 15.6154M10.0711 15.6154C10.0203 15.7373 9.9942 15.868 9.9942 16M10.0711 15.6154L9.9942 16M9.9942 16C9.9942 16.132 10.0203 16.2627 10.0711 16.3846M9.9942 16L10.0711 16.3846M10.0711 16.3846C10.1219 16.5064 10.1963 16.617 10.29 16.71L10.0711 16.3846ZM12.7311 13.1417L13.0743 12.8H12.59H5C4.78783 12.8 4.58434 12.7157 4.43431 12.5657C4.28429 12.4157 4.2 12.2122 4.2 12C4.2 11.7878 4.28429 11.5843 4.43431 11.4343C4.58434 11.2843 4.78783 11.2 5 11.2H12.59H13.0743L12.7311 10.8583L10.4314 8.56858C10.4314 8.56852 10.4313 8.56846 10.4312 8.56839C10.3567 8.49377 10.2975 8.40519 10.2571 8.30771C10.2167 8.21016 10.1959 8.1056 10.1959 8C10.1959 7.8944 10.2167 7.78984 10.2571 7.69229C10.2975 7.59473 10.3568 7.50609 10.4314 7.43142C10.5061 7.35675 10.5947 7.29753 10.6923 7.25712C10.7898 7.21671 10.8944 7.19591 11 7.19591C11.1056 7.19591 11.2102 7.21671 11.3077 7.25712C11.4053 7.29753 11.4939 7.35675 11.5686 7.43142L15.567 11.4298C15.6391 11.5056 15.6957 11.5947 15.7335 11.6923L15.7335 11.6923L15.735 11.696C15.815 11.8908 15.815 12.1092 15.735 12.304L15.735 12.304L15.7335 12.3077C15.6957 12.4053 15.6391 12.4944 15.567 12.5702L11.5686 16.5686L11.568 16.5692C11.4936 16.6441 11.4051 16.7037 11.3077 16.7443C11.2102 16.7849 11.1056 16.8058 11 16.8058C10.8944 16.8058 10.7898 16.7849 10.6923 16.7443C10.5949 16.7037 10.5064 16.6441 10.432 16.5692L10.4308 16.568C10.3559 16.4936 10.2963 16.4051 10.2557 16.3077C10.2151 16.2102 10.1942 16.1056 10.1942 16C10.1942 15.8944 10.2151 15.7898 10.2557 15.6923C10.2963 15.5949 10.3559 15.5064 10.4308 15.432L10.4311 15.4317L12.7311 13.1417ZM7 2.2H17C17.7426 2.2 18.4548 2.495 18.9799 3.0201C19.505 3.5452 19.8 4.25739 19.8 5V19C19.8 19.7426 19.505 20.4548 18.9799 20.9799C18.4548 21.505 17.7426 21.8 17 21.8H7C6.25739 21.8 5.5452 21.505 5.0201 20.9799C4.495 20.4548 4.2 19.7426 4.2 19V16C4.2 15.7878 4.28429 15.5843 4.43431 15.4343C4.58434 15.2843 4.78783 15.2 5 15.2C5.21217 15.2 5.41566 15.2843 5.56569 15.4343C5.71571 15.5843 5.8 15.7878 5.8 16V19C5.8 19.3183 5.92643 19.6235 6.15147 19.8485C6.37652 20.0736 6.68174 20.2 7 20.2H17C17.3183 20.2 17.6235 20.0736 17.8485 19.8485C18.0736 19.6235 18.2 19.3183 18.2 19V5C18.2 4.68174 18.0736 4.37652 17.8485 4.15147C17.6235 3.92643 17.3183 3.8 17 3.8H7C6.68174 3.8 6.37652 3.92643 6.15147 4.15147C5.92643 4.37652 5.8 4.68174 5.8 5V8C5.8 8.21217 5.71571 8.41566 5.56569 8.56569C5.41566 8.71571 5.21217 8.8 5 8.8C4.78783 8.8 4.58434 8.71571 4.43431 8.56569C4.28429 8.41566 4.2 8.21217 4.2 8V5C4.2 4.25739 4.495 3.5452 5.0201 3.0201C5.5452 2.495 6.25739 2.2 7 2.2Z" fill="#383444" stroke="white" stroke-width="0.4"/>
</svg>
