<svg width="40" height="32" viewBox="0 0 40 32" fill="none" xmlns="http://www.w3.org/2000/svg">
<rect width="40" height="32" rx="4" fill="#EAF1FB"/>
<path d="M14.2902 18.29L14.0002 18.59V11C14.0002 10.7348 13.8948 10.4804 13.7073 10.2929C13.5198 10.1054 13.2654 10 13.0002 10C12.735 10 12.4806 10.1054 12.2931 10.2929C12.1055 10.4804 12.0002 10.7348 12.0002 11V18.59L11.7102 18.29C11.5219 18.1017 11.2665 17.9959 11.0002 17.9959C10.7339 17.9959 10.4785 18.1017 10.2902 18.29C10.1019 18.4783 9.99609 18.7337 9.99609 19C9.99609 19.2663 10.1019 19.5217 10.2902 19.71L12.2902 21.71C12.3853 21.801 12.4974 21.8724 12.6202 21.92C12.7399 21.9729 12.8693 22.0002 13.0002 22.0002C13.1311 22.0002 13.2605 21.9729 13.3802 21.92C13.5029 21.8724 13.6151 21.801 13.7102 21.71L15.7102 19.71C15.8034 19.6168 15.8774 19.5061 15.9278 19.3842C15.9783 19.2624 16.0043 19.1319 16.0043 19C16.0043 18.8681 15.9783 18.7376 15.9278 18.6158C15.8774 18.4939 15.8034 18.3832 15.7102 18.29C15.6169 18.1968 15.5063 18.1228 15.3844 18.0723C15.2626 18.0219 15.132 17.9959 15.0002 17.9959C14.8683 17.9959 14.7378 18.0219 14.6159 18.0723C14.4941 18.1228 14.3834 18.1968 14.2902 18.29ZM19.0002 12H29.0002C29.2654 12 29.5198 11.8946 29.7073 11.7071C29.8948 11.5196 30.0002 11.2652 30.0002 11C30.0002 10.7348 29.8948 10.4804 29.7073 10.2929C29.5198 10.1054 29.2654 10 29.0002 10H19.0002C18.735 10 18.4806 10.1054 18.2931 10.2929C18.1055 10.4804 18.0002 10.7348 18.0002 11C18.0002 11.2652 18.1055 11.5196 18.2931 11.7071C18.4806 11.8946 18.735 12 19.0002 12ZM29.0002 15H19.0002C18.735 15 18.4806 15.1054 18.2931 15.2929C18.1055 15.4804 18.0002 15.7348 18.0002 16C18.0002 16.2652 18.1055 16.5196 18.2931 16.7071C18.4806 16.8946 18.735 17 19.0002 17H29.0002C29.2654 17 29.5198 16.8946 29.7073 16.7071C29.8948 16.5196 30.0002 16.2652 30.0002 16C30.0002 15.7348 29.8948 15.4804 29.7073 15.2929C29.5198 15.1054 29.2654 15 29.0002 15ZM29.0002 20H19.0002C18.735 20 18.4806 20.1054 18.2931 20.2929C18.1055 20.4804 18.0002 20.7348 18.0002 21C18.0002 21.2652 18.1055 21.5196 18.2931 21.7071C18.4806 21.8946 18.735 22 19.0002 22H29.0002C29.2654 22 29.5198 21.8946 29.7073 21.7071C29.8948 21.5196 30.0002 21.2652 30.0002 21C30.0002 20.7348 29.8948 20.4804 29.7073 20.2929C29.5198 20.1054 29.2654 20 29.0002 20Z" fill="#266DD3"/>
</svg>
