<svg width="16" height="16" viewBox="0 0 16 16" fill="none" xmlns="http://www.w3.org/2000/svg">
<path d="M7.52447 1.28384C7.67415 0.823183 8.32585 0.823182 8.47553 1.28384L9.90837 5.69367C9.97531 5.89968 10.1673 6.03916 10.3839 6.03916H15.0207C15.505 6.03916 15.7064 6.65897 15.3146 6.94367L11.5633 9.66909C11.3881 9.79641 11.3148 10.0221 11.3817 10.2281L12.8145 14.6379C12.9642 15.0986 12.437 15.4817 12.0451 15.197L8.29389 12.4715C8.11865 12.3442 7.88135 12.3442 7.70611 12.4715L3.95488 15.197C3.56303 15.4817 3.03578 15.0986 3.18546 14.6379L4.6183 10.2281C4.68524 10.0221 4.61191 9.79641 4.43667 9.66909L0.685441 6.94367C0.293584 6.65897 0.494972 6.03916 0.979333 6.03916H5.6161C5.83272 6.03916 6.02469 5.89968 6.09163 5.69367L7.52447 1.28384Z" fill="#FFD700"/>
</svg>
