<svg width="24" height="24" viewBox="0 0 24 24" fill="currentColor" xmlns="http://www.w3.org/2000/svg">
<path d="M17.9996 10.2505C18.5681 10.252 19.1161 10.0383 19.5335 9.65223C19.9509 9.26611 20.2067 8.73627 20.2493 8.16925L20.2537 8.11091L20.2317 8.05669L18.5517 3.90669L18.4885 3.7505H18.32H5.68H5.5115L5.44827 3.90669L3.76827 8.05669L3.74817 8.10634L3.75018 8.15987C3.76125 8.45532 3.83042 8.7457 3.95372 9.01442C4.07702 9.28314 4.25204 9.52494 4.46879 9.72602C4.90654 10.1321 5.48768 10.3477 6.08437 10.3253C6.37982 10.3142 6.6702 10.2451 6.93892 10.1218C7.20764 9.99848 7.44944 9.82346 7.65052 9.60671C7.8516 9.38996 8.00802 9.13573 8.11085 8.85852C8.21308 8.58293 8.26035 8.29001 8.25001 7.99628C8.25112 7.79889 8.33001 7.60983 8.46967 7.47017C8.61032 7.32952 8.80109 7.2505 9 7.2505C9.19891 7.2505 9.38968 7.32952 9.53033 7.47017C9.67098 7.61082 9.75 7.80159 9.75 8.0005C9.75 8.59724 9.98705 9.16953 10.409 9.59149C10.831 10.0134 11.4033 10.2505 12 10.2505C12.5967 10.2505 13.169 10.0134 13.591 9.59149C14.0129 9.16953 14.25 8.59724 14.25 8.0005C14.25 7.80159 14.329 7.61082 14.4697 7.47017C14.6103 7.32952 14.8011 7.2505 15 7.2505C15.1989 7.2505 15.3897 7.32952 15.5303 7.47017C15.671 7.61082 15.75 7.80159 15.75 8.0005C15.75 8.59724 15.9871 9.16953 16.409 9.59149C16.8309 10.0134 17.403 10.2504 17.9996 10.2505ZM17.9996 10.2505C17.9995 10.2505 17.9994 10.2505 17.9993 10.2505L18 10.0005V10.2505C17.9999 10.2505 17.9998 10.2505 17.9996 10.2505ZM21.7507 7.8015L21.7485 7.83053L21.753 7.85929C21.7584 7.89322 21.7584 7.92778 21.753 7.96171L21.7501 7.98024L21.75 7.99899C21.7461 8.65342 21.5709 9.29542 21.242 9.86118C20.913 10.427 20.4418 10.8968 19.875 11.224L19.75 11.2962V11.4405V21.0005C19.75 21.1994 19.671 21.3902 19.5303 21.5308C19.3897 21.6715 19.1989 21.7505 19 21.7505H5C4.80109 21.7505 4.61032 21.6715 4.46967 21.5308C4.32902 21.3902 4.25 21.1994 4.25 21.0005V11.4005V11.2561L4.12497 11.184C3.56363 10.86 3.09584 10.3961 2.76723 9.83742C2.44387 9.28772 2.26614 8.66477 2.2506 8.02754C2.25845 7.9999 2.2699 7.97337 2.28466 7.94864L2.3253 7.88056L2.31928 7.8015C2.31634 7.76296 2.31564 7.7243 2.31718 7.6857L4.30212 2.72335L4.30226 2.723C4.35784 2.58345 4.45404 2.46381 4.5784 2.37956C4.70276 2.29532 4.84955 2.25035 4.99976 2.2505H5H19H19.0088L19.0175 2.24989C19.1765 2.23873 19.3349 2.27852 19.4698 2.36348C19.6046 2.44844 19.7089 2.57415 19.7675 2.72239L19.7679 2.72335L21.7528 7.6857C21.7544 7.7243 21.7537 7.76297 21.7507 7.8015ZM20 2.6305C19.9219 2.43286 19.7828 2.26524 19.603 2.15196C19.4232 2.03868 19.212 1.98562 19 2.0005H5L20 2.6305ZM13 20.2505H13.25V20.0005V16.0005V15.7505H13H11H10.75V16.0005V20.0005V20.2505H11H13ZM18 20.2505H18.25V20.0005V12.0005V11.7519L18.0014 11.7505C17.4675 11.7475 16.9405 11.6305 16.4554 11.4074C15.9704 11.1843 15.5386 10.8602 15.1889 10.4568L15.0016 10.2407L14.8125 10.4551C14.4606 10.8542 14.0278 11.1737 13.5429 11.3926C13.058 11.6115 12.532 11.7247 12 11.7247C11.468 11.7247 10.942 11.6115 10.4571 11.3926C9.97219 11.1737 9.53941 10.8542 9.1875 10.4551L8.99837 10.2407L8.81109 10.4568C8.4614 10.8602 8.0296 11.1843 7.54458 11.4074C7.05955 11.6305 6.53247 11.7475 5.99859 11.7505L5.75 11.7519V12.0005V20.0005V20.2505H6H9H9.25V20.0005V15.0005C9.25 14.8016 9.32902 14.6108 9.46967 14.4702C9.61032 14.3295 9.80109 14.2505 10 14.2505H14C14.1989 14.2505 14.3897 14.3295 14.5303 14.4702C14.671 14.6108 14.75 14.8016 14.75 15.0005V20.0005V20.2505H15H18Z" fill="currentColor" stroke="white" stroke-width="0.5"/>
</svg>
