<svg width="55" height="54" viewBox="0 0 55 54" fill="none" xmlns="http://www.w3.org/2000/svg">
<path fill-rule="evenodd" clip-rule="evenodd" d="M27.5 54C42.4118 54 54.5 41.9118 54.5 27C54.5 21.4998 52.8554 16.3837 50.0309 12.1167L28.565 35.9679C26.4872 38.2767 22.9904 38.6178 20.5053 36.7539L10.7 29.4C9.37451 28.4058 9.10589 26.5254 10.1 25.2C11.0941 23.8746 12.9745 23.6058 14.3 24.6L24.1052 31.9539L46.142 7.46865C41.2958 2.84151 34.7297 0 27.5 0C12.5883 0 0.5 12.0883 0.5 27C0.5 41.9118 12.5883 54 27.5 54Z" fill="#103900"/>
</svg>
