<svg width="27" height="26" viewBox="0 0 27 26" fill="none" xmlns="http://www.w3.org/2000/svg">
<path d="M22.2857 26H1.71429C1.25963 26 0.823594 25.842 0.502103 25.5607C0.180612 25.2794 0 24.8978 0 24.5L0 3.5C0 3.10218 0.180612 2.72064 0.502103 2.43934C0.823594 2.15803 1.25963 2 1.71429 2H22.2857C22.7404 2 23.1764 2.15803 23.4979 2.43934C23.8194 2.72064 24 3.10218 24 3.5V10H22.8571V3.5C22.8571 3.36739 22.7969 3.24021 22.6898 3.14645C22.5826 3.05268 22.4373 3 22.2857 3H1.71429C1.56273 3 1.41739 3.05268 1.31022 3.14645C1.20306 3.24021 1.14286 3.36739 1.14286 3.5V24.5C1.14286 24.6326 1.20306 24.7598 1.31022 24.8536C1.41739 24.9473 1.56273 25 1.71429 25H22.2857C22.4373 25 22.5826 24.9473 22.6898 24.8536C22.6898 24.9862 22.7969 24.7598 22.6898 24.8536L22.8571 10H24V24.5C24 24.8978 23.8194 25.2794 23.4979 25.5607C23.1764 25.842 22.7404 26 22.2857 26Z" fill="#1E0F00"/>
<path d="M11.8077 23H4.19231C4.0087 23 3.83261 22.9473 3.70277 22.8536C3.57294 22.7598 3.5 22.6326 3.5 22.5V18.5C3.5 18.3674 3.57294 18.2402 3.70277 18.1464C3.83261 18.0527 4.0087 18 4.19231 18H11.8077C11.9913 18 12.1674 18.0527 12.2972 18.1464C12.4271 18.2402 12.5 18.3674 12.5 18.5V22.5C12.5 22.6326 12.4271 22.7598 12.2972 22.8536C12.1674 22.9473 11.9913 23 11.8077 23ZM4.88462 22H11.1154V19H4.88462V22Z" fill="#1E0F00"/>
<path d="M18 9C17.9217 8.99953 17.8447 8.98069 17.775 8.945L14 7.06L10.225 8.945C10.1489 8.98336 10.0642 9.00162 9.97907 8.99805C9.89391 8.99448 9.81108 8.9692 9.73844 8.92462C9.6658 8.88003 9.60576 8.81762 9.56403 8.7433C9.5223 8.66898 9.50026 8.58523 9.5 8.5V2.5C9.5 2.36739 9.55268 2.24021 9.64645 2.14645C9.74021 2.05268 9.86739 2 10 2H18C18.1326 2 18.2598 2.05268 18.3536 2.14645C18.4473 2.24021 18.5 2.36739 18.5 2.5V8.5C18.5002 8.58497 18.4787 8.66859 18.4376 8.74295C18.3964 8.81731 18.3371 8.87996 18.265 8.925C18.1854 8.97431 18.0936 9.0003 18 9ZM14 6C14.0783 6.00047 14.1553 6.01931 14.225 6.055L17.5 7.69V3H10.5V7.69L13.775 6.055C13.8447 6.01931 13.9217 6.00047 14 6Z" fill="#1E0F00"/>
<path d="M24 0C22.338 0 21 1.338 21 3C21 4.662 22.338 6 24 6C25.662 6 27 4.662 27 3C27 1.338 25.662 0 24 0Z" fill="#2ECC71"/>
</svg>
