<svg width="28" height="26" viewBox="0 0 28 26" fill="none" xmlns="http://www.w3.org/2000/svg">
<path d="M23.0357 26H2.46429C2.00963 26 1.57359 25.842 1.2521 25.5607C0.930612 25.2794 0.75 24.8978 0.75 24.5L0.75 3.5C0.75 3.10218 0.930612 2.72064 1.2521 2.43934C1.57359 2.15803 2.00963 2 2.46429 2H23.0357C23.4904 2 23.9264 2.15803 24.2479 2.43934C24.5694 2.72064 24.75 3.10218 24.75 3.5V10H23.6071V3.5C23.6071 3.36739 23.5469 3.24021 23.4398 3.14645C23.3326 3.05268 23.1873 3 23.0357 3H2.46429C2.31273 3 2.16739 3.05268 2.06022 3.14645C1.95306 3.24021 1.89286 3.36739 1.89286 3.5V24.5C1.89286 24.6326 1.95306 24.7598 2.06022 24.8536C2.16739 24.9473 2.31273 25 2.46429 25H23.0357C23.1873 25 23.3326 24.9473 23.4398 24.8536C23.4398 24.9862 23.5469 24.7598 23.4398 24.8536L23.6071 10H24.75V24.5C24.75 24.8978 24.5694 25.2794 24.2479 25.5607C23.9264 25.842 23.4904 26 23.0357 26Z" fill="#1E0F00"/>
<path d="M12.5577 23H4.94231C4.7587 23 4.58261 22.9473 4.45277 22.8536C4.32294 22.7598 4.25 22.6326 4.25 22.5V18.5C4.25 18.3674 4.32294 18.2402 4.45277 18.1464C4.58261 18.0527 4.7587 18 4.94231 18H12.5577C12.7413 18 12.9174 18.0527 13.0472 18.1464C13.1771 18.2402 13.25 18.3674 13.25 18.5V22.5C13.25 22.6326 13.1771 22.7598 13.0472 22.8536C12.9174 22.9473 12.7413 23 12.5577 23ZM5.63462 22H11.8654V19H5.63462V22Z" fill="#1E0F00"/>
<path d="M18.75 9C18.6717 8.99953 18.5947 8.98069 18.525 8.945L14.75 7.06L10.975 8.945C10.8989 8.98336 10.8142 9.00162 10.7291 8.99805C10.6439 8.99448 10.5611 8.9692 10.4884 8.92462C10.4158 8.88003 10.3558 8.81762 10.314 8.7433C10.2723 8.66898 10.2503 8.58523 10.25 8.5V2.5C10.25 2.36739 10.3027 2.24021 10.3964 2.14645C10.4902 2.05268 10.6174 2 10.75 2H18.75C18.8826 2 19.0098 2.05268 19.1036 2.14645C19.1973 2.24021 19.25 2.36739 19.25 2.5V8.5C19.2502 8.58497 19.2287 8.66859 19.1876 8.74295C19.1464 8.81731 19.0871 8.87996 19.015 8.925C18.9354 8.97431 18.8436 9.0003 18.75 9ZM14.75 6C14.8283 6.00047 14.9053 6.01931 14.975 6.055L18.25 7.69V3H11.25V7.69L14.525 6.055C14.5947 6.01931 14.6717 6.00047 14.75 6Z" fill="#1E0F00"/>
<path d="M24.75 0C23.088 0 21.75 1.338 21.75 3C21.75 4.662 23.088 6 24.75 6C26.412 6 27.75 4.662 27.75 3C27.75 1.338 26.412 0 24.75 0Z" fill="#CC5500"/>
</svg>
