<svg width="24" height="24" viewBox="0 0 24 24" fill="none" xmlns="http://www.w3.org/2000/svg">
<g clip-path="url(#clip0_1606_23808)">
<path d="M3.94504 0C3.09566 0 2.40004 0.695625 2.40004 1.545V5.775H3.36004V1.545C3.36004 1.21313 3.61316 0.96 3.94504 0.96H20.055C20.385 0.96 20.64 1.21313 20.64 1.545V5.775H21.6V1.545C21.6 0.695625 20.9044 0 20.055 0H3.94504ZM11.52 4.425C9.55504 4.425 8.07379 4.58625 7.03504 4.875C6.51566 5.01937 6.10879 5.20125 5.79004 5.43C5.48066 5.65312 5.25754 5.95875 5.22004 6.33H5.20504V6.36L4.38004 12.48H3.94504C3.74254 12.48 3.54941 12.495 3.36004 12.54V11.505H2.40004V13.02C1.82066 13.4738 1.44004 14.1713 1.44004 14.97V19.2V19.245V21.51C1.43816 21.5306 1.43816 21.5494 1.44004 21.57V22.56C1.44004 23.3494 2.09066 24 2.88004 24H4.80004C5.58941 24 6.24004 23.3494 6.24004 22.56V21.6H14.295C15.2382 23.0456 16.8694 24 18.72 24C18.8307 24 18.9413 23.9925 19.05 23.985C19.0988 23.9981 19.1494 24.0037 19.2 24H21.12C21.9094 24 22.56 23.3494 22.56 22.56C22.5638 22.4944 22.5525 22.4269 22.53 22.365C23.4375 21.4163 24 20.1319 24 18.72C24 17.3231 23.4507 16.05 22.56 15.105V14.97C22.56 14.1713 22.1794 13.4738 21.6 13.02V11.505H20.64V12.54C20.4507 12.495 20.2575 12.48 20.055 12.48H19.62L18.795 6.36V6.33H18.78C18.7332 5.87437 18.39 5.60625 18 5.4C17.6007 5.18813 17.085 5.01562 16.455 4.875C15.195 4.59562 13.485 4.425 11.52 4.425ZM11.52 5.385C13.4307 5.385 15.0882 5.56313 16.245 5.82C16.8225 5.94937 17.2763 6.09562 17.55 6.24C17.7563 6.34875 17.82 6.43875 17.835 6.45L17.85 6.465L18.345 10.14C17.745 10.2469 15.72 10.56 12 10.56C8.28004 10.56 6.25504 10.2469 5.65504 10.14L6.15004 6.465C6.15566 6.45563 6.16129 6.44437 6.16504 6.435C6.16691 6.40687 6.16879 6.3375 6.34504 6.21C6.52129 6.0825 6.84004 5.92875 7.29004 5.805C8.18816 5.55562 9.60941 5.385 11.52 5.385ZM2.04004 6.195C1.43066 6.195 0.915039 6.71063 0.915039 7.32V9.96C0.915039 10.5712 1.43066 11.085 2.04004 11.085H2.76004C3.37129 11.085 3.88504 10.5694 3.88504 9.96V7.32C3.88504 6.70875 3.36941 6.195 2.76004 6.195H2.04004ZM21.24 6.195C20.6307 6.195 20.115 6.70875 20.115 7.32V9.96C20.115 10.5694 20.6288 11.085 21.24 11.085H21.96C22.5694 11.085 23.085 10.5712 23.085 9.96V7.32C23.085 6.71063 22.5713 6.195 21.96 6.195H21.24ZM2.04004 7.245H2.76004C2.80879 7.245 2.83504 7.27125 2.83504 7.32V9.96C2.83504 10.0087 2.80879 10.035 2.76004 10.035H2.04004C1.99129 10.035 1.96504 10.0087 1.96504 9.96V7.32C1.96504 7.27125 1.99129 7.245 2.04004 7.245ZM21.24 7.245H21.96C22.0088 7.245 22.035 7.27125 22.035 7.32V9.96C22.035 10.0087 22.0088 10.035 21.96 10.035H21.24C21.1913 10.035 21.165 10.0087 21.165 9.96V7.32C21.165 7.27125 21.1913 7.245 21.24 7.245ZM5.53504 11.085C6.28504 11.2144 8.40754 11.52 12 11.52C15.5925 11.52 17.715 11.2144 18.465 11.085L18.72 13.02C18.75 13.2619 18.9563 13.4419 19.2 13.44H20.055C20.6213 13.44 21.1069 13.7212 21.375 14.16C20.595 13.7063 19.6857 13.44 18.72 13.44C17.6494 13.44 16.6557 13.7606 15.825 14.31V13.74C15.825 13.0594 15.2607 12.495 14.58 12.495H9.42004C8.73941 12.495 8.17504 13.0594 8.17504 13.74V16.02C8.17504 16.7006 8.73941 17.265 9.42004 17.265H13.65C13.56 17.58 13.5 17.9044 13.47 18.24H2.40004V14.97C2.40004 14.0906 3.08066 13.44 3.94504 13.44H4.80004C5.04379 13.4419 5.25004 13.2619 5.28004 13.02L5.53504 11.085ZM9.42004 13.425H14.58C14.7582 13.425 14.895 13.5619 14.895 13.74V15.09C14.5463 15.4594 14.2575 15.8775 14.025 16.335H9.42004C9.24191 16.335 9.10504 16.1981 9.10504 16.02V13.74C9.10504 13.5619 9.24191 13.425 9.42004 13.425ZM4.17004 14.4C3.72566 14.4 3.36004 14.7656 3.36004 15.21V16.47C3.36004 16.9144 3.72566 17.28 4.17004 17.28H6.39004C6.83441 17.28 7.20004 16.9144 7.20004 16.47V15.21C7.20004 14.7656 6.83441 14.4 6.39004 14.4H4.17004ZM18.72 14.4C19.8769 14.4 20.9307 14.8481 21.705 15.585C21.7144 15.5962 21.7238 15.6056 21.735 15.615C22.5432 16.3988 23.04 17.5012 23.04 18.72C23.04 21.1106 21.1107 23.04 18.72 23.04C16.3294 23.04 14.4 21.1106 14.4 18.72C14.4 16.3294 16.3294 14.4 18.72 14.4ZM4.32004 15.36H6.24004V16.32H4.32004V15.36ZM21.12 16.965L18.39 19.695L16.68 17.985L15.99 18.66L18.06 20.715L18.39 21.06L18.735 20.715L21.81 17.655L21.12 16.965ZM2.40004 19.2H13.47C13.515 19.7044 13.6369 20.1863 13.815 20.64H2.40004V19.275C2.40191 19.2506 2.40191 19.2244 2.40004 19.2ZM2.40004 21.6H5.28004V22.56C5.28004 22.83 5.07004 23.04 4.80004 23.04H2.88004C2.61004 23.04 2.40004 22.83 2.40004 22.56V21.6Z" fill="black"/>
</g>
<defs>
<clipPath id="clip0_1606_23808">
<rect width="24" height="24" fill="white"/>
</clipPath>
</defs>
</svg>
